<svg width="494" height="690" viewBox="0 0 494 690" fill="none" xmlns="http://www.w3.org/2000/svg">
<path d="M217.672 640.213C214.983 643.401 208.959 640.667 207.527 637.467C205.716 633.412 208.099 628.006 212.805 627.676C214.974 627.524 216.319 627.602 218.13 629.015C222.011 632.045 220.378 637.001 217.672 640.213ZM203.101 564.559C201.289 560.508 203.673 555.098 208.383 554.768C210.552 554.617 211.892 554.694 213.708 556.108C217.585 559.137 215.956 564.093 213.246 567.305C210.561 570.498 204.533 567.759 203.101 564.559ZM230.833 608.412C230.589 600.687 230.335 592.958 229.986 585.229C229.283 569.604 228.192 553.976 225.996 538.479C222.321 512.535 212.656 489.45 205.894 464.403C203.215 454.476 201.11 444.397 199.504 434.241C196.505 415.303 195.313 396.261 195.475 377.133C195.636 358.385 196.994 339.456 203.577 321.734C207.152 312.102 211.12 300.023 218.951 292.95C220.19 291.832 222.391 290.601 223.412 289.556C223.412 289.544 223.412 289.537 223.412 289.529C223.799 289.23 224.177 288.927 224.535 288.601C224.803 286.868 225.128 285.14 225.387 283.385C225.409 283.256 225.427 283.12 225.444 282.988C221.399 282.662 216.932 285.587 213.374 287.129C204.895 290.818 196.191 293.968 187.741 297.739C183.853 299.475 179.905 301.293 176.108 303.138C172.4 304.944 169.487 307.977 165.763 309.791C161.599 311.818 157.427 313.826 153.193 315.718C149.994 317.151 146.781 318.572 143.592 320.036C145.873 326.188 148.84 332.084 152.418 337.58C152.305 337.976 152.191 338.372 152.067 338.768C148.925 348.761 142.796 357.387 138.614 366.922C137.588 369.264 136.728 371.649 135.877 374.022L135.886 374.026C137.802 375.067 137.881 377.405 138.531 379.42C143.931 396.148 135.078 405.811 132.647 421.463C130.696 433.992 135.384 445.325 134.864 457.563C134.528 465.459 130.145 472.221 128.116 479.674C127.208 483.014 126.575 486.416 126.095 489.842C121.559 522.501 114.213 554.993 107.818 587.392C106.285 595.152 104.959 603.537 102.955 611.736L102.972 611.74C105.033 636.799 105.299 662.432 105.107 687.759H230.685C231.235 676.441 231.649 665.112 231.684 653.779C231.737 638.539 231.317 623.613 230.833 608.412Z" fill="#FD4370"/>
<path d="M136.742 116.006C137.959 116.768 138.023 118.515 136.973 119.366C135.725 120.38 134.297 120.531 132.78 120.325C130.693 120.038 128.517 119.902 126.426 119.797C123.956 119.677 121.477 119.661 119.002 119.58C117.205 119.514 114.038 119.851 112.595 118.539C110.764 116.861 112.33 115.226 114.259 114.826C116.017 114.468 117.849 114.834 119.592 114.907C120.863 114.958 122.159 115.02 123.446 115.067C126.19 115.16 128.94 115.113 131.685 115.14C133.369 115.152 135.259 115.07 136.742 116.006Z" fill="#FFBC3B"/>
<path d="M119.572 76.1841C121.909 76.33 121.737 78.8989 120.314 80.0578C120.117 80.8398 118.89 81.0545 118.261 81.5245C117.318 82.2255 112.173 86.2126 111.372 87.0675C110.655 87.8333 109.796 88.2183 108.942 88.8301C107.823 89.6324 104.106 92.4646 102.913 90.2645C102.559 89.6121 102.805 88.7572 103.153 88.1737C103.924 86.8852 105.373 85.9573 106.669 85.2726C107.882 84.6324 109.247 83.7531 110.106 82.6793C110.926 81.6583 116.155 78.0277 117.151 77.2255C117.834 76.6744 118.649 76.1193 119.572 76.1841Z" fill="#FFBC3B"/>
<path d="M119.567 158.395C119.891 159.797 118.713 161.082 117.367 160.942C115.767 160.787 114.642 159.89 113.709 158.674C112.428 157.004 110.984 155.377 109.57 153.831C107.901 152.002 106.148 150.25 104.454 148.448C103.222 147.135 100.733 145.155 100.634 143.201C100.507 140.719 102.775 140.661 104.425 141.737C105.927 142.712 106.968 144.265 108.157 145.543C109.025 146.479 109.904 147.431 110.783 148.37C112.668 150.367 114.652 152.266 116.587 154.223C117.77 155.416 119.169 156.694 119.567 158.395Z" fill="#FFBC3B"/>
<path d="M93.5345 118.997C94.1039 122.574 89.9847 122.45 87.3774 122.298C88.1534 120.745 89.1403 119.319 90.4659 118.174C91.7475 117.063 93.2203 117.016 93.5345 118.997Z" fill="#FFBC3B"/>
<path d="M87.0632 166.477C87.0632 166.586 86.6951 166.423 86.4939 166.357C86.1105 166.232 85.7082 166.085 85.34 165.933C84.4611 165.58 83.8373 165.304 82.9242 165.087C78.6869 164.085 74.4695 162.57 70.3254 161.249H70.2077C70.2027 160.065 70.2664 158.861 70.1879 157.692C70.1386 156.942 69.859 156.092 69.8295 155.288L69.8935 155.284C69.8935 155.676 77.5183 158.278 78.2302 158.492C81.0044 159.327 83.8276 159.874 86.4251 161.191C86.7541 161.358 87.191 161.789 87.52 161.677H87.6625C87.6524 163.3 87.5689 164.92 87.2939 166.516L87.0632 166.477Z" fill="#DEDEDE"/>
<path d="M86.4939 166.357C86.6951 166.423 87.0633 166.586 87.0633 166.477L87.294 166.516C87.2252 166.935 87.1417 167.351 87.0434 167.763C86.7393 169.017 86.5479 170.244 85.9094 171.378C85.728 171.701 85.5315 172.008 85.3202 172.299L85.2763 172.272C84.1566 171.817 83.0124 171.173 81.8294 170.784C78.137 169.576 74.4105 167.957 70.8362 166.438L70.4482 166.442C70.4334 165.366 70.4777 164.283 70.3305 163.211C70.2419 162.57 70.2124 161.91 70.2078 161.249H70.3255C74.4695 162.57 78.687 164.085 82.9242 165.087C83.8373 165.304 84.4611 165.58 85.34 165.933C85.7082 166.085 86.1105 166.232 86.4939 166.357Z" fill="#DEDEDE"/>
<path d="M75.0538 153.322C75.034 153.322 75.0192 153.322 74.9998 153.322C74.705 149.066 73.3698 144.949 72.7215 140.715C71.9114 135.402 71.4251 129.759 69.5694 124.683C69.27 123.875 68.9359 123.075 68.5483 122.298C68.8625 122.279 69.1569 122.263 69.4172 122.248C70.4188 122.201 71.5039 121.821 72.4516 121.487C73.5317 121.106 74.4254 120.372 75.2651 119.618C76.0554 118.915 77.0178 118.255 77.602 117.374C77.6657 117.276 77.7297 117.172 77.7934 117.071C79.1536 119.071 81.0932 120.648 83.4794 121.487C84.422 121.821 85.5071 122.201 86.5134 122.248C86.7737 122.263 87.0634 122.279 87.3776 122.298C86.99 123.075 86.656 123.875 86.3612 124.683C84.5005 129.759 84.0142 135.402 83.2044 140.715C82.6199 144.545 81.2454 148.456 81.2155 152.348C81.2155 152.705 81.2699 153.07 81.2745 153.427C79.1928 153.443 77.1013 153.385 75.0538 153.322Z" fill="#FFBC3B"/>
<path d="M85.2764 172.272L85.3202 172.299C84.8344 172.982 84.2697 173.592 83.6016 174.132C82.0108 175.421 79.4727 175.6 77.5281 175.348C75.1815 175.041 73.1436 173.6 71.8868 171.623C71.2534 170.621 70.7823 169.471 70.5904 168.302C70.4875 167.689 70.458 167.067 70.4482 166.442L70.8362 166.438C74.4105 167.957 78.1371 169.576 81.8295 170.784C83.0125 171.173 84.1567 171.817 85.2764 172.272Z" fill="#DEDEDE"/>
<path d="M79.2125 110.775C79.2564 112.911 78.9029 115.214 77.7933 117.07C76.8064 115.614 76.1241 113.936 75.8001 112.15C75.5399 110.724 75.5399 108.107 77.0519 107.272C78.5841 106.433 79.1977 109.967 79.2125 110.775Z" fill="#FFBC3B"/>
<path d="M78.9614 60.3639C79.4522 60.9978 78.8679 62.0988 78.8483 62.8828C78.8242 64.063 78.7896 70.5688 78.971 71.724C79.1336 72.7624 78.9076 73.6757 78.8629 74.7266C78.8041 76.1028 78.7453 80.7695 76.2757 80.3608C75.5442 80.2357 75.0187 79.5142 74.7781 78.8803C74.2385 77.4832 74.4003 75.7692 74.6601 74.3263C74.9007 72.9793 75.0483 71.357 74.7339 70.0225C74.4345 68.7463 74.8027 62.3907 74.7831 61.1104C74.7685 60.2346 74.8323 59.2505 75.4508 58.5582C77.0122 56.8108 78.9222 58.529 78.9614 60.3639Z" fill="#FFBC3B"/>
<path d="M75.0539 153.322C75.0391 153.376 75.0636 153.408 75.0095 153.462C75.0048 153.415 75.0048 153.369 74.9998 153.322C75.0192 153.322 75.034 153.322 75.0539 153.322Z" fill="#8CC295"/>
<path d="M70.9872 153.218L70.531 153.45L70.4179 153.106C69.8235 151.504 69.1951 150.126 68.2527 148.68C66.0092 145.24 62.2576 143.65 59.1987 141.141C51.8389 135.109 47.268 125.585 46.777 116.021C45.9812 100.549 57.7845 85.9281 73.6486 85.5685C80.5765 85.4127 88.3537 86.8988 93.9853 91.0455C99.4008 95.0204 103.575 100.653 105.587 107.085C107.664 113.7 107.448 120.887 105.116 127.403C103.948 130.671 102.263 133.751 100.157 136.503C97.8891 139.471 94.5206 141.273 92.2028 144.094C90.0967 146.654 87.1557 149.231 86.866 152.746L86.8265 153.118L86.6155 153.202C84.8626 153.362 83.0757 153.418 81.2736 153.43C81.2688 153.07 81.2145 152.706 81.2145 152.347C81.2444 148.46 82.6187 144.549 83.2035 140.718C84.0133 135.405 84.4995 129.764 86.3603 124.686C86.6551 123.875 86.9891 123.076 87.3766 122.301C89.9836 122.453 94.1031 122.577 93.5335 119.002C93.2195 117.016 91.7466 117.068 90.465 118.175C89.1395 119.321 88.1524 120.747 87.3766 122.301C87.0622 122.281 86.7725 122.265 86.5125 122.254C85.5062 122.202 84.4212 121.826 83.4784 121.49C81.0922 120.652 79.1527 119.074 77.7924 117.072C78.9022 115.215 79.2554 112.913 79.2114 110.776C79.1967 109.973 78.583 106.438 77.051 107.277C75.5389 108.112 75.5389 110.728 75.7994 112.15C76.123 113.94 76.8057 115.618 77.7924 117.072C77.7285 117.176 77.6646 117.28 77.6011 117.376C77.017 118.259 76.0543 118.918 75.2641 119.621C74.4244 120.376 73.5307 121.107 72.4505 121.49C71.5029 121.826 70.4179 122.202 69.4164 122.254C69.1559 122.265 68.8615 122.281 68.5475 122.301C67.7713 120.747 66.7845 119.321 65.459 118.175C64.1775 117.068 62.7094 117.016 62.3902 119.002C61.8205 122.577 65.9404 122.453 68.5475 122.301C68.935 123.076 69.269 123.875 69.5686 124.686C71.4242 129.764 71.9104 135.405 72.7205 140.718C73.3689 144.948 74.704 149.067 74.9988 153.326C73.6386 153.286 72.2983 153.242 70.9872 153.218Z" fill="#FFBC3B"/>
<path d="M69.8935 155.284L69.8294 155.288C69.7999 154.616 69.9425 153.971 70.5316 153.447L70.988 153.214C72.2992 153.241 73.6395 153.284 74.9996 153.322C75.0047 153.369 75.0047 153.416 75.0093 153.462C75.0633 153.408 75.0388 153.377 75.0536 153.322C77.1012 153.385 79.1926 153.443 81.2743 153.427C83.0764 153.416 84.8634 153.357 86.6166 153.202L86.8275 153.117C87.6326 153.633 87.6718 154.81 87.6718 155.664C87.6769 156.83 87.6081 157.979 87.6326 159.152C87.6524 159.991 87.6672 160.834 87.6625 161.677H87.52C87.191 161.789 86.7541 161.358 86.4251 161.191C83.8276 159.874 81.0044 159.327 78.2302 158.492C77.5183 158.278 69.8935 155.676 69.8935 155.284Z" fill="#DEDEDE"/>
<path d="M65.4598 118.174C66.7853 119.319 67.7722 120.745 68.5482 122.298C65.941 122.45 61.8214 122.574 62.3912 118.997C62.71 117.016 64.1781 117.063 65.4598 118.174Z" fill="#FFBC3B"/>
<path d="M48.9083 141.737C50.5628 140.661 52.8264 140.719 52.7036 143.201C52.6054 145.155 50.1162 147.135 48.8839 148.448C47.1851 150.25 45.437 152.002 43.7626 153.831C42.3536 155.377 40.9053 157.004 39.6236 158.674C38.6907 159.89 37.5663 160.787 35.9709 160.942C34.6255 161.082 33.4421 159.797 33.7664 158.395C34.1637 156.694 35.5681 155.416 36.7515 154.223C38.6861 152.266 40.6695 150.367 42.5548 148.37C43.4337 147.431 44.3126 146.479 45.1818 145.543C46.3648 144.265 47.4107 142.712 48.9083 141.737Z" fill="#FFBC3B"/>
<path d="M45.423 89.7262C46.7834 91.1569 47.1322 93.3959 44.6766 93.7232C42.7375 93.9778 40.3316 91.8965 38.8196 90.9265C36.7371 89.5848 34.6953 88.1864 32.5937 86.8729C30.8159 85.7655 28.9503 84.642 27.0751 83.6882C25.7099 82.9931 24.6247 82.0474 24.1729 80.5076C23.7998 79.2102 24.8458 77.8159 26.2797 77.8806C28.0272 77.9574 29.5396 79.1011 30.929 80.0509C33.202 81.5947 35.4317 83.1992 37.7438 84.6865C38.8245 85.3816 39.9238 86.0686 40.9996 86.7517C42.4727 87.6893 44.1863 88.4329 45.423 89.7262Z" fill="#FFBC3B"/>
<path d="M39.0738 114.826C41.0083 115.226 42.5747 116.861 40.7384 118.539C39.2948 119.851 36.1329 119.514 34.3359 119.58C31.8611 119.661 29.3817 119.677 26.9073 119.797C24.8154 119.902 22.6451 120.038 20.5587 120.325C19.0413 120.531 17.6078 120.38 16.3607 119.366C15.3148 118.515 15.3785 116.768 16.5914 116.006C18.0742 115.07 19.9695 115.152 21.6536 115.14C24.3983 115.113 27.1477 115.16 29.8924 115.067C31.1787 115.02 32.4701 114.958 33.7467 114.907C35.4898 114.834 37.321 114.468 39.0738 114.826Z" fill="#FFBC3B"/>
<path d="M262.691 265.173L262.699 264.921C274.04 264.548 287.284 257.949 297.032 250.364L297.234 250.62C296.823 253.898 297.017 257.503 296.772 260.443C296.291 266.21 295.988 272.172 296.427 277.982C289.692 278.39 283.175 280.118 276.203 279.559C268.416 278.934 260.105 276.922 252.829 274.087C246.421 271.597 240.724 267.461 235.272 263.344C231.549 260.536 228.624 257.188 225.438 253.828C224.87 253.23 224.272 252.438 223.639 251.63C227.341 253.708 231.112 255.681 234.945 257.689C239.646 260.151 244.675 261.783 249.804 263.181C253.938 264.311 258.454 265.053 262.691 265.173Z" fill="#E39476"/>
<path d="M213.708 556.108C217.585 559.137 215.956 564.093 213.246 567.305C210.561 570.498 204.533 567.76 203.101 564.559C201.289 560.508 203.673 555.098 208.383 554.768C210.552 554.617 211.892 554.694 213.708 556.108Z" fill="#37628F"/>
<path d="M410.798 687.759H308.039C308.183 672.013 308.389 656.156 306.987 640.547C305.81 627.419 305.103 614.234 305.456 601.052C305.748 590.224 304.889 579.244 305.254 568.338C305.662 556.135 308.284 544.002 308.785 531.749C309.162 522.61 310.735 513.77 312.669 504.837C314.886 494.588 314.747 484.028 317.547 473.805C320.382 463.482 323.384 453.217 325.431 442.645C327.295 433.029 328.441 423.331 330.41 413.761C334.88 392.07 334.989 370.122 331.447 348.272C330.414 341.891 329.971 335.548 328.391 329.245C325.295 316.914 319.671 304.889 310.039 296.318C306.478 293.149 301.6 291.614 298.124 288.667C297.797 286.942 297.421 285.229 297.106 283.482C297.079 283.35 297.056 283.218 297.036 283.085C301.068 282.631 305.627 285.412 309.232 286.845C317.823 290.263 326.623 293.133 335.187 296.636C339.129 298.244 343.13 299.938 346.986 301.662C350.75 303.348 353.756 306.291 357.535 307.985C361.761 309.88 365.998 311.752 370.286 313.512C379.413 317.256 388.633 320.868 397.185 325.827C408.534 332.41 419.203 338.993 428.24 348.754C436.684 357.877 443.399 369.917 449.236 380.819C455.707 392.882 460.585 406.37 464.958 419.319C466.014 422.457 467.568 425.619 468.182 428.869C469.327 434.99 469.743 441.375 470.667 447.566C471.716 454.561 472.664 461.579 473.537 468.601C475.305 482.882 476.742 497.206 477.981 511.541C479.561 529.822 479.363 548.216 481.325 566.47C483.239 584.347 490.215 600.392 493.229 617.935C495.178 629.315 492.906 640.729 492.164 652.105C491.76 658.234 494.017 664.156 493.943 670.254C493.873 676.126 492.3 681.867 492.137 687.759H410.798Z" fill="#FD4370"/>
<path d="M77.7898 360.584C77.1742 357.682 76.7987 354.758 76.2534 351.802C75.677 348.68 74.9744 345.58 74.2714 342.485C71.3337 329.556 69.1207 317.496 73.1976 304.54C76.86 292.908 83.2113 282.239 85.9921 270.308C87.8995 262.128 87.4454 253.91 87.1794 245.571C86.8473 235.353 87.3798 225.1 87.4412 214.877C87.4851 207.723 86.6465 197.326 93.74 192.984C95.7526 191.753 96.9748 191.73 99.1222 192.701C105.256 195.47 106.408 204.539 106.674 210.345C107.416 226.607 106.805 242.814 106.74 259.091C106.735 259.973 106.901 260.516 106.936 261.32C109.184 261.231 111.428 261.487 113.549 262.128C123.035 264.987 129.482 273.415 135.305 281.027C136.628 275.469 139.714 268.739 145.529 266.781C147.297 266.187 148.811 265.771 150.566 266.416C153.237 267.395 155.691 269.057 156.965 271.671C159.716 277.291 156.874 284.297 155.634 289.952C154.778 293.855 153.735 297.689 153.757 301.751C153.774 306.183 154.512 310.568 154.621 314.995C154.709 318.592 154.691 322.219 154.42 325.823C154.093 330.212 153.39 334.558 152.068 338.768C148.925 348.761 142.796 357.387 138.614 366.922C137.588 369.264 136.728 371.649 135.877 374.022C133.406 380.892 130.997 387.588 124.72 392.396C116.452 398.742 105.391 396.657 96.9923 391.728C92.4218 389.048 88.3317 385.479 85.0623 381.308C83.233 378.974 82.6136 377.331 82.0892 374.519C81.4041 370.841 79.623 367.326 78.5755 363.741C78.2699 362.693 78.0124 361.64 77.7898 360.584Z" fill="#F5B49B"/>
<path d="M285 199.626C286.946 204.418 282.717 209.813 279.551 213.068C274.296 218.466 267.43 221.596 259.79 220.61C255.492 220.051 252.07 219.091 248.412 216.687C245.099 214.508 241.973 211.902 239.607 208.702C237.756 206.197 236.294 201.641 238.372 198.829C240.091 196.499 243.392 195.691 246.159 195.979C248.709 196.239 251.327 196.278 253.886 196.464C256.287 196.631 258.664 196.538 261.056 196.429C264.187 196.282 267.34 196.441 270.451 196.033C273.294 195.664 276.075 194.483 278.969 195.113C281.629 195.691 283.921 196.977 285 199.626Z" fill="white"/>
<path d="M163.343 162.098C162.902 159.004 162.553 155.901 162.186 152.821C161.785 149.455 161.501 145.995 160.457 142.729C158.358 136.157 154.299 130.435 152.063 123.916C151.016 120.859 150.418 118.072 150.462 114.82C150.514 111.287 150.981 107.781 151.286 104.262C151.793 98.3773 153.024 92.5782 154.399 86.8426C156.211 79.293 158.93 71.4857 158.114 63.6421C158.017 62.7329 157.9 61.8327 157.786 60.9235C157.035 55.0024 159.034 50.6192 161.741 45.5304C165.918 37.6688 172.148 30.3816 180.136 26.1884C188.914 21.5836 199.635 20.032 208.807 16.0515C212.748 14.3371 216.537 12.2835 220.152 9.95392C221.632 8.9995 222.758 7.76912 224.316 6.95943C226.665 5.74263 229.153 4.75204 231.567 3.71619C234.461 2.47678 237.547 1.50874 240.646 0.952377C250.11 -0.734863 260.353 -0.155838 269.578 2.49487C278.627 5.09131 288.026 10.6324 290.263 20.4799C290.842 23.013 292.737 22.7732 295.037 22.7732C301.833 21.2262 309.127 22.7778 315.174 26.0889C323.975 30.9063 326.946 39.2746 331.682 47.4393C335.885 54.6903 341.77 60.7471 346.922 67.3061C353.472 75.6517 358.465 85.074 356.842 96.007C356.082 101.1 355.304 105.882 355.457 110.993C355.616 116.19 353.137 122.08 351.843 127.065C350.997 130.29 350.69 133.791 349.428 136.835C346.402 144.109 345.908 151.78 346.252 159.525C346.275 160.085 346.297 160.651 346.334 161.216C346.447 163.062 346.307 165.563 346.157 167.431C346.044 168.938 345.913 170.326 345.397 171.756C344.954 172.973 343.932 174.845 342.453 175.067C337.599 175.786 338.531 161.7 338.458 159.104C338.214 150.546 336.699 140.974 331.768 133.728C329.213 129.964 327.643 125.206 326.594 120.786C325.427 115.892 325.119 111.278 325.123 106.284C325.137 98.5085 325.698 90.6604 321.532 83.5903C317.726 77.1309 309.908 74.2766 302.773 73.7429C301.06 73.6117 299.973 73.7202 298.299 73.6207C286.756 72.9286 275.388 73.7202 264.653 78.2301C261.27 79.6549 257.565 80.2339 253.908 80.1661C244.501 79.9942 235.6 76.2353 226.49 74.3264C221.998 73.3765 217.746 73.1593 213.216 73.4669C208.518 73.7926 203.808 74.0821 199.906 77.0857C196.388 79.7952 193.983 83.6943 192.621 87.8785C191.673 90.7734 191.15 93.7951 190.844 96.8122C190.464 100.607 191.56 104.217 191.245 107.976C190.699 114.526 189.495 120.804 186.326 126.621C185.505 128.132 184.942 129.752 184.248 131.326C183.619 132.746 182.672 133.791 181.825 135.08C179.97 137.903 177.91 140.644 176.622 143.797C173.689 150.984 175.539 158.86 175.644 166.341C175.688 169.404 175.661 172.728 173.649 175.243C171.571 177.835 168.795 177.121 166.814 174.791C164.744 172.366 164.518 169.281 163.993 166.282C163.749 164.889 163.535 163.496 163.343 162.098Z" fill="#1E244A"/>
<path d="M297.036 283.085C297.056 283.218 297.079 283.35 297.106 283.482C296.97 283.4 296.838 283.416 296.796 283.117C296.873 283.101 296.959 283.093 297.036 283.085Z" fill="#8CC295"/>
<path d="M300.621 151.198C301.149 153.928 300.264 156.833 298.761 159.109C297.087 161.634 293.401 161.96 290.659 161.207C284.538 159.529 282.736 152.262 287.016 147.718C289.303 145.287 293.179 143.558 296.38 145.252C298.349 146.293 300.201 149.038 300.621 151.198Z" fill="#2B1A0F"/>
<path d="M218.13 629.015C222.011 632.045 220.378 637.001 217.672 640.213C214.983 643.401 208.959 640.667 207.527 637.467C205.716 633.412 208.099 628.006 212.804 627.676C214.974 627.524 216.319 627.602 218.13 629.015Z" fill="#37628F"/>
<path d="M138.531 379.42C143.931 396.148 135.078 405.811 132.647 421.463C130.696 433.992 135.384 445.325 134.864 457.563C134.528 465.459 130.146 472.221 128.116 479.674C127.208 483.014 126.575 486.416 126.095 489.842C121.56 522.501 114.213 554.993 107.818 587.392C106.286 595.152 104.959 603.537 102.955 611.736C100.419 622.133 96.8001 632.231 90.3222 640.376C74.9437 659.709 37.9661 667.213 18.4408 649.398C6.7858 638.76 2.30267 621.83 0.713789 606.676C-2.81352 573.076 7.30079 537.089 18.5542 505.82C22.4917 494.879 27.804 484.494 31.8113 473.58C35.5957 463.261 38.0927 453.089 39.2015 442.144C39.9829 434.443 41.8118 426.9 45.505 420.053C49.8351 412.017 57.3212 406.246 59.9665 397.259C63.5637 385.044 61.2501 370.884 73.704 362.999C75.0964 362.118 76.6985 361.675 77.7898 360.584C78.0124 361.64 78.2699 362.693 78.5755 363.741C79.623 367.326 81.4041 370.841 82.0892 374.519C82.6135 377.331 83.233 378.974 85.0623 381.308C88.3317 385.479 92.4218 389.048 96.9923 391.728C105.391 396.657 116.452 398.742 124.72 392.396C130.997 387.588 133.406 380.892 135.877 374.022L135.886 374.026C137.802 375.067 137.881 377.405 138.531 379.42Z" fill="#FD4370"/>
<path d="M223.312 283.722C223.312 283.447 223.321 283.175 223.334 282.907C223.582 277.419 223.679 271.912 223.356 266.424C223.194 263.678 222.928 260.94 222.522 258.225C222.347 257.072 221.976 255.926 221.771 254.831C221.583 253.805 221.867 252.225 221.155 251.378L221.662 250.5C222.317 250.881 222.976 251.254 223.639 251.63C224.272 252.438 224.87 253.23 225.438 253.829C228.624 257.188 231.549 260.536 235.272 263.344C240.725 267.461 246.421 271.597 252.829 274.087C260.105 276.922 268.416 278.934 276.203 279.559C283.175 280.118 289.692 278.39 296.427 277.982C296.496 278.988 296.594 279.986 296.718 280.977C296.803 281.687 296.912 282.386 297.036 283.086C296.959 283.093 296.873 283.101 296.796 283.117C296.838 283.416 296.97 283.4 297.106 283.482C297.421 285.229 297.798 286.942 298.124 288.667C298.559 291.02 298.881 293.393 298.749 295.875C298.512 300.442 297.242 304.924 295.207 309.01C291.176 317.108 284.126 323.819 275.667 327.109C274.001 327.757 272.351 328.507 270.661 329.094C267.643 330.15 264.156 330.569 260.971 330.398C257.736 330.228 254.309 329.587 251.179 328.752C245.976 327.369 241.633 325.948 237.215 322.705C230.545 317.811 225.381 310.661 223.298 302.61C222.478 299.46 222.426 297.032 223.046 293.941C223.334 292.508 223.412 291.04 223.412 289.556C223.412 287.606 223.277 285.645 223.312 283.722Z" fill="#F5B49B"/>
<path d="M307.868 120.547C309.169 122.663 307.965 124.939 305.627 125.285C303.444 125.611 301.312 124.66 299.3 123.961C298.384 123.638 297.397 123.258 296.469 123.032C295.316 122.749 294.182 123.11 293.02 123.075C289.672 122.97 286.713 124.26 283.586 125.254C282.755 125.514 281.691 125.611 280.852 125.13C277.99 123.483 280.231 120.683 281.955 119.148C283.159 118.073 284.231 117.412 285.742 116.841C287.684 116.107 289.909 115.303 291.952 114.993C293.723 114.717 295.564 114.589 297.347 114.787C301.009 115.187 305.864 117.3 307.868 120.547Z" fill="#1E244A"/>
<path d="M233.889 120.547C235.194 122.663 233.985 124.939 231.645 125.285C229.462 125.611 227.336 124.66 225.324 123.961C224.407 123.638 223.421 123.258 222.491 123.032C221.339 122.749 220.204 123.11 219.038 123.075C215.69 122.97 212.735 124.26 209.605 125.254C208.78 125.514 207.715 125.611 206.877 125.13C204.013 123.483 206.253 120.683 207.977 119.148C209.182 118.073 210.251 117.412 211.766 116.841C213.708 116.107 215.935 115.303 217.973 114.993C219.745 114.717 221.588 114.589 223.364 114.787C227.027 115.187 231.889 117.3 233.889 120.547Z" fill="#1E244A"/>
<path d="M227.786 151.198C228.314 153.928 227.428 156.833 225.922 159.109C224.25 161.634 220.562 161.96 217.821 161.207C211.705 159.529 209.902 152.262 214.18 147.718C216.471 145.287 220.344 143.558 223.543 145.252C225.512 146.293 227.367 149.038 227.786 151.198Z" fill="#2B1A0F"/>
<path d="M225.922 159.11C227.428 156.838 228.314 153.931 227.786 151.199C227.367 149.041 225.511 146.293 223.543 145.25C220.343 143.557 216.471 145.287 214.18 147.718C209.902 152.261 211.705 159.529 217.82 161.206C220.562 161.96 224.25 161.634 225.922 159.11ZM231.645 125.284C233.984 124.938 235.193 122.666 233.889 120.549C231.889 117.3 227.026 115.187 223.364 114.788C221.587 114.588 219.745 114.718 217.973 114.991C215.934 115.305 213.708 116.111 211.766 116.844C210.251 117.414 209.181 118.073 207.977 119.148C206.252 120.683 204.013 123.48 206.877 125.133C207.714 125.614 208.78 125.516 209.605 125.255C212.735 124.258 215.69 122.971 219.038 123.077C220.203 123.11 221.338 122.747 222.491 123.032C223.421 123.26 224.407 123.639 225.324 123.961C227.336 124.661 229.462 125.614 231.645 125.284ZM279.551 213.069C282.714 209.812 286.944 204.421 284.998 199.629C283.919 196.978 281.627 195.692 278.968 195.114C276.074 194.487 273.294 195.663 270.451 196.034C267.34 196.441 264.186 196.286 261.056 196.429C258.664 196.539 256.286 196.632 253.885 196.461C251.327 196.278 248.708 196.241 246.159 195.981C243.391 195.692 240.091 196.498 238.371 198.831C236.293 201.64 237.756 206.196 239.607 208.704C241.973 211.904 245.098 214.51 248.411 216.688C252.069 219.09 255.492 220.051 259.79 220.613C267.429 221.598 274.296 218.468 279.551 213.069ZM298.76 159.11C300.262 156.838 301.15 153.931 300.621 151.199C300.201 149.041 298.349 146.293 296.378 145.25C293.178 143.557 289.302 145.287 287.014 147.718C282.735 152.261 284.538 159.529 290.658 161.206C293.402 161.96 297.087 161.634 298.76 159.11ZM305.628 125.284C307.965 124.938 309.171 122.666 307.868 120.549C305.865 117.3 301.007 115.187 297.347 114.788C295.564 114.588 293.723 114.718 291.952 114.991C289.908 115.305 287.685 116.111 285.743 116.844C284.229 117.414 283.158 118.073 281.953 119.148C280.231 120.683 277.991 123.48 280.854 125.133C281.692 125.614 282.755 125.516 283.585 125.255C286.712 124.258 289.672 122.971 293.019 123.077C294.179 123.11 295.315 122.747 296.468 123.032C297.396 123.26 298.385 123.639 299.301 123.961C301.313 124.661 303.446 125.614 305.628 125.284ZM223.639 251.63C222.975 251.255 222.316 250.881 221.661 250.498C217.872 248.324 214.153 246.011 210.508 243.434C203.328 238.349 195.636 232.534 190.337 225.426C187.198 221.224 183.951 217.197 180.668 213.085C177.748 209.429 175.862 205.072 173.033 201.351C170.026 197.39 166.638 196.758 162.461 194.393C158.205 191.979 154.211 188.681 151.351 184.691C150.234 183.135 149.06 181.971 148.279 180.204C147.431 178.29 146.598 176.426 146.065 174.398C145 170.339 144.943 165.97 146.572 162.045C147.911 158.816 151.229 156.386 154.704 156.036C159.34 155.576 160.933 158.93 163.342 162.102C163.535 163.499 163.749 164.891 163.993 166.284C164.517 169.28 164.744 172.366 166.813 174.789C168.794 177.122 171.571 177.838 173.649 175.245C175.661 172.729 175.687 169.402 175.644 166.345C175.539 158.861 173.688 150.987 176.621 143.797C177.909 140.645 179.969 137.905 181.825 135.08C182.672 133.793 183.619 132.747 184.248 131.326C184.942 129.754 185.505 128.134 186.325 126.619C189.494 120.805 190.699 114.523 191.245 107.976C191.559 104.218 190.463 100.607 190.844 96.8161C191.149 93.795 191.673 90.774 192.62 87.8792C193.982 83.6978 196.387 79.7973 199.905 77.0898C203.808 74.0851 208.518 73.7919 213.215 73.4702C217.746 73.1608 221.997 73.3766 226.489 74.3253C235.6 76.2388 244.5 79.9968 253.907 80.1678C257.564 80.237 261.27 79.6548 264.652 78.2339C275.386 73.7227 286.757 72.9287 298.3 73.6209C299.973 73.7227 301.06 73.6128 302.77 73.743C309.908 74.2764 317.725 77.1305 321.532 83.5919C325.697 90.66 325.135 98.5098 325.123 106.282C325.119 111.278 325.428 115.891 326.592 120.789C327.639 125.206 329.21 129.966 331.767 133.728C336.698 140.975 338.212 150.547 338.457 159.105C338.53 161.699 337.598 175.786 342.451 175.07C343.933 174.846 344.955 172.973 345.399 171.756C345.912 170.331 346.042 168.942 346.16 167.432C346.307 165.563 346.445 163.063 346.335 161.219C346.298 160.653 346.274 160.087 346.254 159.525L346.482 159.517C350.59 153.365 359.453 156.549 361.896 162.428C363.578 166.479 363.517 170.986 362.417 175.18C361.864 177.272 361.005 179.198 360.133 181.173C359.323 183.001 358.114 184.202 356.962 185.806C354.01 189.922 349.881 193.334 345.488 195.822C342.247 197.658 338.827 199.14 335.509 200.826L335.273 200.72C331.071 210.312 325.88 220.259 319.443 228.027C314.402 234.114 308.259 240.116 302.559 245.604C300.893 247.2 299.041 248.8 297.034 250.363C287.282 257.953 274.04 264.548 262.699 264.923L262.691 265.175C258.454 265.053 253.937 264.312 249.804 263.18C244.675 261.784 239.646 260.151 234.944 257.688C231.112 255.681 227.34 253.71 223.639 251.63Z" fill="#F5B49B"/>
<path d="M65.8748 99.9858C63.8748 100.829 61.7132 102.432 61.3301 104.185C61.1227 105.134 61.4128 106.142 61.1623 107.079C60.7443 108.643 59.0505 109.423 57.8397 110.498C55.8005 112.309 55.039 115.422 56.0126 117.967C56.7901 120.006 58.547 121.676 58.7752 123.841C58.9685 125.679 58.0891 127.84 59.3297 129.208C60.382 130.369 62.2495 130.102 63.7191 130.643C65.6086 131.341 66.7382 133.349 68.572 134.18C71.2307 135.388 74.2608 133.768 77.1768 133.639C78.9439 133.56 80.6829 134.039 82.439 134.251C84.1948 134.462 86.1149 134.364 87.5229 133.294C89.0657 132.121 89.6299 130.083 90.778 128.522C91.9064 126.989 93.5677 125.954 95.0349 124.742C96.5013 123.527 97.8697 121.951 98.0124 120.053C98.2069 117.473 96.1359 115.32 95.3948 112.842C94.9098 111.223 95.0078 109.49 94.8271 107.808C94.6577 106.232 94.137 104.158 92.5008 103.538C91.61 103.201 90.6317 103.189 89.7088 102.954C86.7845 102.205 84.8308 99.3977 82.0458 98.2332C80.2559 97.4843 78.2272 97.4725 76.3244 97.8489C74.5318 98.2057 72.7148 99.3703 70.9061 99.4016C69.1131 99.4291 67.6039 99.2526 65.8748 99.9858Z" fill="white"/>
<path d="M243.755 662.168C242.379 658.039 242.476 653.86 241.745 649.557C239.988 639.211 238.832 628.771 237.91 618.323C237.47 613.332 237.738 607.763 236.623 602.893C235.739 599.024 235.477 595.35 235.245 591.342C234.126 572.09 230.795 552.966 225.372 534.459C225.594 535.792 225.805 537.131 225.996 538.479C228.105 553.362 229.194 568.365 229.9 583.376C229.929 583.994 229.958 584.611 229.986 585.229C230.335 592.958 230.589 600.687 230.833 608.412C231.317 623.613 231.737 638.539 231.684 653.779C231.649 665.112 231.235 676.441 230.685 687.759H247.23C246.975 684.352 246.512 680.942 246.043 677.575C245.355 672.643 245.331 666.891 243.755 662.168Z" fill="#EDEDED"/>
<path d="M331.447 348.272C330.414 341.891 329.971 335.548 328.391 329.245C325.295 316.914 319.671 304.889 310.039 296.318C306.478 293.148 301.6 291.614 298.124 288.667C298.559 291.02 298.881 293.393 298.749 295.875C298.512 300.442 297.242 304.924 295.207 309.01C291.176 317.108 284.126 323.819 275.667 327.109C274.001 327.757 272.351 328.507 270.661 329.093C267.643 330.15 264.156 330.569 260.971 330.398C257.736 330.228 254.309 329.587 251.179 328.752C245.976 327.369 241.633 325.948 237.215 322.705C230.545 317.811 225.381 310.661 223.299 302.609C222.478 299.46 222.426 297.032 223.046 293.941C223.334 292.508 223.412 291.04 223.412 289.556C222.391 290.601 220.191 291.832 218.951 292.95C211.12 300.023 207.152 312.102 203.577 321.734C196.994 339.456 195.637 358.385 195.475 377.133C195.313 396.261 196.505 415.303 199.504 434.241C201.11 444.397 203.215 454.476 205.895 464.403C212.305 488.148 221.321 510.135 225.372 534.459C230.796 552.966 234.126 572.09 235.245 591.342C235.477 595.35 235.74 599.024 236.623 602.893C237.738 607.763 237.47 613.332 237.91 618.323C238.832 628.771 239.989 639.211 241.746 649.557C242.477 653.86 242.379 658.039 243.755 662.168C245.331 666.891 245.355 672.643 246.043 677.575C246.512 680.942 246.976 684.352 247.23 687.759H263.216H308.039C308.183 672.013 308.389 656.156 306.987 640.547C305.81 627.419 305.103 614.234 305.457 601.052C305.748 590.224 304.889 579.244 305.255 568.338C305.662 556.135 308.284 544.002 308.785 531.748C309.162 522.61 310.735 513.77 312.669 504.837C314.886 494.588 314.747 484.028 317.547 473.805C320.382 463.482 323.384 453.217 325.431 442.645C327.295 433.029 328.441 423.331 330.41 413.761C334.881 392.07 334.989 370.122 331.447 348.272Z" fill="#FFFBF2"/>
<path d="M271.793 69.2068C271.517 69.2068 271.241 69.0997 271.028 68.8899C270.6 68.4659 270.593 67.7764 271.016 67.3481C278.958 59.3011 282.613 48.7229 285.145 39.4339C285.304 38.8515 285.907 38.5089 286.485 38.6673C287.064 38.8258 287.41 39.4253 287.25 40.0078C282.609 57.0441 277.226 64.1661 272.57 68.8813C272.356 69.0955 272.076 69.2068 271.793 69.2068Z" fill="black"/>
<path d="M289.329 69.628C288.875 69.628 288.455 69.345 288.292 68.8955C288.097 68.3294 288.396 67.7051 288.967 67.5053C294.765 65.4741 299.967 62.4565 304.438 58.5357C304.891 58.1403 305.582 58.1861 305.978 58.6398C306.377 59.0893 306.331 59.7802 305.878 60.1798C301.195 64.2837 295.751 67.4428 289.687 69.5656C289.566 69.6072 289.445 69.628 289.329 69.628Z" fill="black"/>
<path d="M239.233 59.0547C238.73 59.0547 238.277 58.7047 238.167 58.1949C235.715 46.8325 229.344 38.2394 220.689 34.6147C220.133 34.3814 219.871 33.742 220.104 33.1847C220.337 32.6274 220.977 32.3682 221.532 32.6014C230.855 36.507 237.696 45.666 240.3 57.7326C240.428 58.3202 240.053 58.9035 239.464 59.0287C239.387 59.046 239.309 59.0547 239.233 59.0547Z" fill="black"/>
<path d="M202.492 58.538C202.312 58.538 202.131 58.4918 201.962 58.3992C195.375 54.7362 189.055 53.2979 183.18 54.1222C182.581 54.2063 182.032 53.7899 181.948 53.1927C181.864 52.5956 182.28 52.0446 182.877 51.9605C189.233 51.0689 196.012 52.5914 203.023 56.4941C203.55 56.7843 203.74 57.4488 203.447 57.9787C203.247 58.3362 202.875 58.538 202.492 58.538Z" fill="black"/>
<path d="M263.041 181.69C261.891 181.69 260.676 181.414 259.413 180.863C257.254 179.919 255.663 178.909 254.407 177.693C253.975 177.274 253.964 176.583 254.384 176.152C254.803 175.717 255.494 175.705 255.927 176.124C256.99 177.157 258.376 178.027 260.287 178.862C261.561 179.418 262.734 179.62 263.775 179.453C264.567 179.325 265.371 179.076 266.16 178.711C267.197 178.233 270.335 176.781 268.272 170.003C267.589 167.766 266.785 165.518 266.008 163.346C265.297 161.362 264.563 159.307 263.919 157.253C263.546 156.06 263.445 154.903 263.348 153.788C263.301 153.252 263.258 152.744 263.185 152.231C262.625 148.254 262.975 144.153 263.433 140.311C263.503 139.713 264.047 139.286 264.645 139.356C265.243 139.43 265.67 139.97 265.6 140.572C265.158 144.265 264.824 148.196 265.348 151.928C265.426 152.499 265.476 153.058 265.523 153.598C265.612 154.647 265.697 155.633 266 156.596C266.633 158.612 267.36 160.643 268.063 162.609C268.851 164.807 269.663 167.079 270.362 169.366C272.525 176.474 269.768 179.445 267.076 180.692C266.109 181.138 265.111 181.449 264.117 181.608C263.763 181.663 263.406 181.69 263.041 181.69Z" fill="#AB684D"/>
<path d="M166.642 188.359C166.242 188.359 165.858 188.137 165.666 187.757C165.102 186.63 164.029 185.904 162.893 185.135C161.575 184.246 160.081 183.236 159.375 181.465C158.645 179.639 159.147 178.024 159.589 176.602C159.78 175.985 159.961 175.402 160.047 174.816C160.131 174.237 159.94 173.713 159.698 173.048C159.582 172.73 159.462 172.404 159.363 172.039C159.043 170.87 158.757 170.174 158.08 169.619C156.342 168.194 154.787 167.491 153.705 167.638C153.134 167.716 152.655 168.038 152.24 168.629C151.893 169.118 151.212 169.238 150.719 168.889C150.227 168.543 150.109 167.86 150.457 167.37C151.229 166.271 152.224 165.634 153.412 165.475C155.152 165.242 157.187 166.065 159.464 167.933C160.699 168.943 161.131 170.233 161.468 171.464C161.544 171.74 161.643 172.011 161.749 172.303C162.04 173.099 162.371 174.008 162.206 175.134C162.096 175.884 161.881 176.579 161.673 177.247C161.274 178.532 160.959 179.546 161.402 180.657C161.86 181.803 162.905 182.509 164.115 183.329C165.372 184.18 166.797 185.143 167.617 186.778C167.887 187.314 167.669 187.97 167.131 188.242C166.974 188.32 166.807 188.359 166.642 188.359Z" fill="#AB684D"/>
<path d="M342.986 189.656C342.823 189.656 342.656 189.621 342.5 189.539C341.961 189.271 341.743 188.615 342.011 188.075C342.854 186.397 344.322 185.407 345.615 184.529C346.87 183.682 347.953 182.948 348.431 181.756C348.893 180.599 348.548 179.492 348.151 178.214C347.938 177.523 347.713 176.808 347.6 176.035C347.433 174.882 347.771 173.949 348.07 173.13C348.179 172.831 348.284 172.547 348.361 172.26C348.707 170.994 349.154 169.673 350.42 168.632C352.762 166.714 354.855 165.859 356.642 166.104C357.857 166.267 358.875 166.924 359.667 168.046C360.013 168.535 359.896 169.219 359.403 169.565C358.914 169.914 358.23 169.798 357.884 169.304C357.449 168.687 356.948 168.349 356.346 168.267C355.22 168.116 353.604 168.842 351.802 170.322C351.095 170.901 350.8 171.623 350.466 172.835C350.365 173.212 350.241 173.549 350.121 173.876C349.872 174.567 349.674 175.111 349.759 175.717C349.849 176.322 350.035 176.928 350.233 177.565C350.688 179.03 351.204 180.688 350.458 182.564C349.732 184.381 348.26 185.376 346.839 186.339C345.662 187.135 344.551 187.885 343.965 189.054C343.77 189.434 343.386 189.656 342.986 189.656Z" fill="#AB684D"/>
<path d="M131.654 316.413C131.404 316.413 131.215 316.358 131.05 316.3C130.986 316.277 130.978 316.273 130.921 316.269C130.321 316.222 129.872 315.698 129.919 315.096C129.966 314.494 130.492 314.047 131.093 314.094C131.358 314.114 131.543 314.164 131.693 314.214C131.798 314.191 131.905 314.183 132.012 314.187C134.908 314.409 137.431 310.793 138.342 308.474C139.856 304.614 140.28 300.147 139.601 295.191C139.027 291.001 138.275 286.663 135.998 283.719C135.57 283.163 135.141 282.604 134.709 282.041C134.342 281.563 134.433 280.876 134.912 280.51C135.39 280.145 136.075 280.235 136.442 280.712C136.872 281.276 137.299 281.831 137.724 282.383C140.331 285.754 141.149 290.41 141.763 294.896C142.493 300.225 142.026 305.06 140.374 309.27C139.692 311.006 138.567 312.731 137.286 314.001C135.645 315.632 133.827 316.448 132.024 316.374C131.887 316.401 131.765 316.413 131.654 316.413Z" fill="#AB684D"/>
<path d="M93.8336 267.037C93.5023 267.037 93.1749 266.89 92.9605 266.602C92.5985 266.121 92.6952 265.437 93.1768 265.076C96.7484 262.388 101.219 260.691 105.767 260.299C106.364 260.245 106.896 260.691 106.948 261.289C107.001 261.891 106.556 262.42 105.955 262.474C101.81 262.831 97.7376 264.377 94.4888 266.82C94.2922 266.967 94.0619 267.037 93.8336 267.037Z" fill="#AB684D"/>
<path d="M116.054 332.997C114.573 332.997 113.186 332.601 112.193 331.536C112.124 331.466 111.857 331.342 111.679 331.261C111.088 330.989 110.1 330.53 110.003 329.389C109.952 328.787 110.397 328.258 110.998 328.208C111.553 328.165 112.039 328.534 112.155 329.059C112.261 329.125 112.457 329.218 112.597 329.28C112.989 329.462 113.434 329.668 113.788 330.049C115.425 331.8 120.041 330.208 122.056 328.864C127.691 325.105 131.76 315.772 128.206 305.884C127.781 304.699 126.951 303.534 126.148 302.404C125.834 301.961 125.509 301.507 125.21 301.048C120.467 293.824 115.781 289.676 111.283 288.717C106.454 287.692 101.058 288.507 98.2717 289.086C97.6821 289.21 97.1038 288.83 96.9814 288.239C96.8587 287.649 97.2378 287.074 97.8277 286.95C100.782 286.336 106.517 285.474 111.737 286.581C116.889 287.68 121.893 292.018 127.035 299.852C127.311 300.271 127.61 300.695 127.927 301.141C128.815 302.388 129.734 303.681 130.26 305.146C133.193 313.306 131.739 325.027 123.268 330.682C121.785 331.668 118.764 332.997 116.054 332.997Z" fill="#AB684D"/>
<path d="M101.388 344.586C99.4058 344.586 97.5264 343.658 96.1527 341.864C95.0376 340.407 94.3017 338.586 94.184 336.997C94.1331 336.31 94.1956 335.622 94.2562 334.958C94.3498 333.925 94.4384 332.954 94.0869 332.197C93.2045 330.294 91.5806 328.985 89.8613 327.594L89.2899 327.132C88.8231 326.748 88.754 326.06 89.1354 325.594C89.516 325.128 90.2038 325.058 90.6706 325.439L91.233 325.897C93.0705 327.381 94.9708 328.919 96.0669 331.28C96.6654 332.569 96.5403 333.941 96.43 335.152C96.3752 335.758 96.3232 336.329 96.3609 336.838C96.4471 338.003 97.0316 339.421 97.886 340.535C99.4986 342.644 101.931 342.998 104.233 341.464C108.238 338.795 109.854 333.206 110.031 328.868C110.122 326.643 109.78 324.246 109.014 321.749C108.213 319.139 106.072 316.972 104.002 314.871L103.504 314.366C101.075 311.892 98.3921 310.094 95.5282 309.022C94.9638 308.812 94.6772 308.183 94.8885 307.616C95.099 307.053 95.7282 306.765 96.2925 306.979C99.4575 308.16 102.408 310.133 105.062 312.84L105.555 313.341C107.706 315.519 110.142 317.986 111.1 321.108C111.939 323.842 112.313 326.484 112.212 328.958C111.954 335.273 109.424 340.628 105.444 343.281C104.129 344.159 102.735 344.586 101.388 344.586Z" fill="#AB684D"/>
<path d="M114.496 346.819C114.391 346.819 114.284 346.804 114.179 346.773C113.602 346.598 113.277 345.988 113.451 345.413C115.05 340.143 116.949 336.209 119.608 332.655C120.084 332.022 120.513 331.435 120.936 330.861C121.554 330.018 122.138 329.222 122.834 328.313C123.2 327.831 123.885 327.742 124.363 328.107C124.842 328.472 124.934 329.16 124.568 329.637C123.885 330.531 123.307 331.315 122.695 332.15C122.269 332.733 121.835 333.323 121.356 333.964C118.855 337.304 117.061 341.029 115.54 346.047C115.397 346.516 114.964 346.819 114.496 346.819Z" fill="#AB684D"/>
<path d="M103.156 612.004C103.072 612.004 102.987 611.996 102.902 611.977C102.316 611.837 101.954 611.247 102.094 610.66C103.373 605.293 104.381 599.836 105.356 594.558C105.828 592.002 106.273 589.591 106.749 587.179C108.331 579.162 109.999 571.002 111.612 563.114C116.525 539.085 121.604 514.24 125.016 489.69C125.546 485.88 126.216 482.509 127.065 479.387C127.83 476.575 128.929 473.844 129.991 471.203C131.832 466.632 133.57 462.309 133.774 457.517C133.997 452.246 133.215 447.007 132.458 441.942C131.47 435.328 130.449 428.485 131.567 421.296C132.4 415.936 133.956 411.318 135.461 406.848C138.415 398.082 140.966 390.509 137.493 379.758C137.33 379.253 137.204 378.741 137.081 378.247C136.722 376.803 136.413 375.552 135.362 374.981C134.833 374.694 134.637 374.029 134.925 373.501C135.214 372.973 135.877 372.775 136.406 373.066C138.299 374.096 138.777 376.022 139.199 377.723C139.318 378.201 139.43 378.655 139.57 379.086C143.264 390.524 140.478 398.793 137.529 407.547C136.054 411.928 134.528 416.457 133.724 421.63C132.656 428.493 133.653 435.165 134.617 441.62C135.389 446.789 136.186 452.13 135.954 457.61C135.735 462.779 133.845 467.475 132.016 472.019C130.977 474.602 129.902 477.27 129.171 479.961C128.347 482.991 127.695 486.273 127.178 489.993C123.757 514.609 118.67 539.489 113.75 563.553C112.138 571.437 110.471 579.594 108.891 587.602C108.417 589.998 107.973 592.406 107.502 594.954C106.522 600.259 105.51 605.747 104.217 611.165C104.097 611.666 103.65 612.004 103.156 612.004Z" fill="#2E5378"/>
<path d="M101.188 447.454C100.909 447.454 100.629 447.345 100.416 447.131C91.1285 437.81 82.8486 427.514 73.2737 414.919C72.909 414.437 73.0023 413.753 73.4819 413.388C73.962 413.023 74.6467 413.117 75.0114 413.598C84.533 426.124 92.7601 436.357 101.961 445.589C102.387 446.017 102.386 446.708 101.959 447.135C101.746 447.345 101.467 447.454 101.188 447.454Z" fill="#2E5378"/>
<path d="M83.531 472.166C78.3989 472.166 72.9537 471.203 66.8977 469.25C66.324 469.063 66.009 468.45 66.1939 467.875C66.3792 467.3 66.9948 466.985 67.5676 467.172C76.7984 470.151 84.5109 470.745 91.8393 469.04C92.4266 468.904 93.0126 469.269 93.1493 469.856C93.2857 470.446 92.9202 471.032 92.333 471.168C89.4678 471.832 86.5538 472.166 83.531 472.166Z" fill="#2E5378"/>
<path d="M410.798 689.246C410.794 689.246 410.79 689.246 410.79 689.246C410.184 689.242 409.703 688.749 409.707 688.147C409.777 680.647 409.116 672.907 408.479 665.423C407.924 658.921 407.353 652.198 407.26 645.669C407.089 633.645 406.483 621.415 405.893 609.588C405.683 605.328 405.462 600.924 405.267 596.589C404.11 570.944 402.358 546.554 399.912 522.019C397.333 496.161 395.146 470.865 396.711 445.686C397.842 427.463 401.857 408.017 408.98 386.229C409.167 385.658 409.784 385.347 410.355 385.534C410.93 385.72 411.241 386.337 411.054 386.908C403.99 408.518 400.009 427.786 398.89 445.818C397.337 470.838 399.512 496.037 402.083 521.802C404.533 546.375 406.289 570.804 407.446 596.492C407.644 600.819 407.862 605.223 408.075 609.48C408.662 621.325 409.272 633.575 409.443 645.638C409.536 652.089 410.103 658.773 410.654 665.236C411.295 672.775 411.959 680.566 411.889 688.166C411.885 688.764 411.396 689.246 410.798 689.246Z" fill="#2E5378"/>
<path d="M444.121 647.087C443.811 647.087 443.504 646.955 443.286 646.699C442.898 646.24 442.956 645.549 443.418 645.161C454.98 635.42 463.078 625.695 467.494 616.257C467.751 615.713 468.399 615.476 468.943 615.733C469.491 615.989 469.727 616.638 469.471 617.185C464.923 626.907 456.631 636.884 444.824 646.831C444.618 647.005 444.37 647.087 444.121 647.087Z" fill="#2E5378"/>
<path d="M85.2733 173.499C85.1207 173.499 84.9657 173.472 84.815 173.41C84.3346 173.215 83.8569 172.994 83.3947 172.777C82.7213 172.458 82.0859 172.159 81.4466 171.949C78.0342 170.831 74.6157 169.378 71.3101 167.976L70.3551 167.568C69.731 167.304 69.4393 166.586 69.7038 165.96C69.9683 165.335 70.688 165.044 71.3129 165.308L72.2698 165.716C75.5284 167.098 78.8984 168.532 82.2121 169.619C82.9939 169.875 83.7283 170.221 84.4387 170.555C84.89 170.765 85.3161 170.967 85.7324 171.134C86.3612 171.386 86.6657 172.101 86.4125 172.73C86.2198 173.208 85.7596 173.499 85.2733 173.499Z" fill="#A19086"/>
<path d="M85.8993 166.854C85.8993 166.858 85.8993 166.857 85.8997 166.857C85.8993 166.857 85.8993 166.858 85.8993 166.854ZM87.0311 167.739C86.7013 167.739 86.4011 167.626 86.21 167.557L86.1083 167.522C85.6325 167.362 85.229 167.215 84.874 167.071L84.5963 166.958C83.8801 166.663 83.3628 166.45 82.6416 166.279C79.3982 165.518 76.1575 164.45 73.0232 163.416C71.9952 163.079 70.971 162.741 69.9511 162.414C69.3052 162.209 68.9487 161.521 69.1549 160.873C69.3608 160.228 70.0517 159.87 70.6972 160.076C71.7241 160.403 72.756 160.744 73.7911 161.086C76.8756 162.1 80.0654 163.152 83.2047 163.89C84.1151 164.104 84.7703 164.376 85.5288 164.686L85.8015 164.799C86.1063 164.923 86.4602 165.051 86.8839 165.191C86.9157 165.203 86.9511 165.215 86.9887 165.23C87.5204 165.199 88.0351 165.521 88.2191 166.054C88.383 166.523 88.2665 167.032 87.9158 167.378C87.6354 167.654 87.322 167.739 87.0311 167.739Z" fill="#A19086"/>
<path d="M87.4074 162.919C86.8217 162.919 86.3366 162.593 86.0468 162.399C85.9843 162.356 85.9257 162.314 85.8701 162.282C84.087 161.381 82.1789 160.861 80.1589 160.313C79.4125 160.107 78.6407 159.898 77.8764 159.669C77.3408 159.506 72.3765 157.824 70.2676 156.903C69.6461 156.631 69.3622 155.909 69.6337 155.288C69.9048 154.666 70.6287 154.383 71.2494 154.655C73.234 155.521 78.0881 157.167 78.5864 157.319C79.3177 157.54 80.0727 157.742 80.8029 157.944C82.8532 158.5 84.9733 159.078 86.9817 160.096C87.1444 160.177 87.2904 160.278 87.4194 160.364C87.4559 160.387 87.5021 160.418 87.5444 160.445C88.0455 160.457 88.51 160.775 88.6816 161.277C88.9011 161.917 88.5589 162.616 87.9177 162.834C87.741 162.896 87.5705 162.919 87.4074 162.919Z" fill="#A19086"/>
<path d="M77.4221 109.788C76.902 110.394 76.7766 111.928 77.0069 113.179C77.1502 113.967 77.3646 114.721 77.6442 115.432C77.9413 114.228 78.0058 113.02 77.9856 112.053C77.9747 111.497 77.7071 110.328 77.4221 109.788ZM63.7758 119.886C63.7816 119.894 63.6702 120.03 63.6037 120.446C63.4694 121.289 63.728 121.572 63.8127 121.665C64.2725 122.174 65.3421 122.341 66.4455 122.372C65.9057 121.584 65.3146 120.92 64.6594 120.352C64.217 119.972 63.8752 119.875 63.7758 119.886ZM92.1224 119.871C92.0599 119.871 91.7131 119.968 91.2664 120.352C90.6116 120.92 90.0209 121.584 89.481 122.372C90.5844 122.341 91.654 122.174 92.1139 121.665C92.1989 121.572 92.4576 121.289 92.3232 120.446C92.251 119.991 92.1251 119.875 92.124 119.871C92.1232 119.871 92.1228 119.871 92.1224 119.871ZM81.2177 154.822C81.2146 154.822 81.2115 154.822 81.2084 154.822C80.5307 154.818 79.985 154.266 79.9901 153.587C80.0087 150.984 80.5913 148.409 81.1548 145.916C81.4783 144.487 81.7836 143.135 81.9906 141.784C82.1561 140.7 82.3076 139.605 82.4606 138.502C83.0614 134.163 83.6828 129.674 85.2068 125.514C85.3191 125.207 85.434 124.908 85.5513 124.617C84.6666 124.458 83.8017 124.155 83.0703 123.895C80.9917 123.168 79.19 121.929 77.7716 120.318C77.4182 120.663 77.0446 120.974 76.6954 121.265C76.4868 121.44 76.2798 121.611 76.0845 121.782C75.2114 122.562 74.1697 123.436 72.8566 123.895C72.1253 124.155 71.2603 124.458 70.3752 124.617C70.4929 124.908 70.6075 125.207 70.7201 125.514C72.2437 129.674 72.8651 134.163 73.4664 138.502C73.619 139.605 73.7705 140.7 73.9359 141.78C74.1884 143.434 74.5589 145.116 74.9174 146.743C75.3963 148.918 75.8918 151.171 76.133 153.447C76.2041 154.123 75.7155 154.725 75.0413 154.798C74.3678 154.868 73.7627 154.379 73.6912 153.707C73.4648 151.563 72.9844 149.384 72.5195 147.271C72.1529 145.605 71.7738 143.885 71.5093 142.153C71.3423 141.057 71.1889 139.95 71.0347 138.84C70.4513 134.626 69.8478 130.272 68.4143 126.357C68.215 125.813 68.008 125.301 67.7925 124.819C65.7865 124.897 63.3311 124.792 61.9939 123.316C61.4766 122.745 60.915 121.716 61.1794 120.057C61.4501 118.36 62.3963 117.778 62.9365 117.579C63.9475 117.21 65.1608 117.541 66.2634 118.492C67.4274 119.498 68.4127 120.733 69.2687 122.279C69.2974 122.279 69.3262 122.275 69.3542 122.275C70.183 122.232 71.1714 121.887 72.0433 121.58C72.9324 121.269 73.7192 120.605 74.449 119.952C74.6661 119.758 74.8956 119.568 75.1279 119.374C75.5671 119.013 75.9878 118.663 76.3101 118.294C75.4895 116.9 74.9022 115.323 74.5919 113.622C74.1958 111.466 74.4478 108.557 76.4624 107.45C77.1339 107.081 77.8788 107.078 78.5072 107.443C80.2619 108.456 80.4394 111.967 80.4398 112.002C80.4759 113.727 80.2759 116.096 79.2351 118.232C80.434 119.762 82.0229 120.927 83.8836 121.58C84.7555 121.887 85.744 122.232 86.5724 122.275C86.6008 122.275 86.6291 122.279 86.6579 122.279C87.5139 120.737 88.4988 119.498 89.6624 118.496C90.7662 117.541 91.9791 117.21 92.9901 117.579C93.5303 117.778 94.4764 118.36 94.7475 120.057C95.0116 121.716 94.4504 122.745 93.9327 123.316C92.5958 124.792 90.1413 124.897 88.1341 124.819C87.9189 125.301 87.7119 125.813 87.5123 126.357C86.0788 130.272 85.4756 134.626 84.8922 138.84C84.7381 139.95 84.5846 141.057 84.4172 142.153C84.1974 143.593 83.8681 145.05 83.5496 146.46C83.0148 148.825 82.4617 151.268 82.4446 153.606C82.44 154.278 81.8916 154.822 81.2177 154.822Z" fill="#A84216"/>
<path d="M210.27 540.949C209.737 540.949 209.271 540.561 209.191 540.017C207.502 528.544 204.168 517.576 201.128 508.36C200.076 505.167 198.804 501.886 197.574 498.709C194.926 491.865 192.187 484.789 191.154 477.581C191.069 476.982 191.483 476.431 192.08 476.345C192.676 476.26 193.229 476.676 193.315 477.27C194.312 484.23 197.005 491.19 199.61 497.92C200.849 501.121 202.131 504.433 203.201 507.676C206.27 516.982 209.637 528.063 211.35 539.699C211.438 540.297 211.026 540.852 210.43 540.938C210.376 540.945 210.322 540.949 210.27 540.949Z" fill="#2E5378"/>
<path d="M415.155 378.97C415.016 378.97 414.876 378.943 414.744 378.888C414.185 378.659 413.917 378.022 414.146 377.463C415.917 373.125 418.433 369.163 420.865 365.337C422.511 362.743 424.216 360.063 425.638 357.337C425.914 356.801 426.574 356.595 427.11 356.871C427.642 357.15 427.852 357.807 427.572 358.343C426.108 361.155 424.38 363.877 422.71 366.507C420.325 370.254 417.862 374.131 416.165 378.29C415.99 378.713 415.583 378.97 415.155 378.97Z" fill="#2E5378"/>
</svg>
