<svg width="700" height="529" viewBox="0 0 700 529" fill="none" xmlns="http://www.w3.org/2000/svg">
<path d="M507.816 412.543H158.877V166.302C158.877 159.552 164.35 154.079 171.101 154.079H495.591C502.344 154.079 507.816 159.552 507.816 166.302V229.926H494.864V166.739H171.212V365.563H494.864V344.836H507.816V412.543Z" fill="url(#paint0_linear)"/>
<path d="M494.864 365.562H171.212V166.739H494.864V229.926H391.679C388.818 229.926 386.5 232.245 386.5 235.106V339.655C386.5 342.516 388.818 344.836 391.679 344.836H494.864V365.562Z" fill="url(#paint1_linear)"/>
<path d="M56.4056 166.427H135.763C134.216 158.679 127.257 152.923 119.288 152.923C117.478 152.923 115.697 153.209 113.995 153.775L113.56 153.919L113.299 153.544C108.896 147.297 101.717 143.568 94.0895 143.568C85.1579 143.568 77.1166 148.528 73.1063 156.514L72.8856 156.951L72.4095 156.835C71.3837 156.581 70.3243 156.453 69.2598 156.453C63.1772 156.453 57.8882 160.604 56.4056 166.427ZM137.215 167.658H54.8895L55.0328 166.925C56.354 160.144 62.3385 155.222 69.2598 155.222C70.2598 155.222 71.2547 155.325 72.2276 155.53C76.5166 147.379 84.8495 142.337 94.0895 142.337C101.964 142.337 109.388 146.115 114.04 152.468C115.736 151.952 117.5 151.692 119.288 151.692C128.246 151.692 135.74 158.108 137.105 166.948L137.215 167.658Z" fill="#6AAFE8"/>
<path d="M415.191 22.7897C414.821 26.7033 413.591 51.4994 439.559 64.9393C465.529 51.4994 464.298 26.7033 463.928 22.7897C447.8 22.6891 441.237 18.1974 439.559 16.7716C437.883 18.1974 431.318 22.6891 415.191 22.7897ZM439.559 66.3226L439.28 66.1794C410.065 51.2632 413.989 22.3768 414.031 22.0865L414.109 21.56H414.639C433.215 21.56 439.052 15.5742 439.109 15.5148L439.562 15.0336L440.012 15.5162C440.067 15.5742 445.905 21.56 464.479 21.56H465.009L465.088 22.0865C465.131 22.3768 469.055 51.2632 439.838 66.1794L439.559 66.3226Z" fill="#6AAFE8"/>
<path d="M599.42 450.233C595.022 430.138 604.524 425.122 613.713 420.275C621.222 416.31 628.315 412.568 627.937 400.724C627.436 385.023 638.132 379.312 647.568 374.272C654.589 370.523 661.218 366.982 662.207 359.837C664.587 342.648 680.443 321.283 680.602 321.07L681.587 321.806C681.429 322.015 665.762 343.132 663.426 360.008C662.351 367.77 655.451 371.455 648.147 375.357C638.581 380.466 628.689 385.748 629.165 400.685C629.568 413.295 621.799 417.396 614.287 421.361C605.101 426.209 596.424 430.788 600.621 449.97L599.42 450.233Z" fill="url(#paint2_linear)"/>
<path d="M592.622 435.249C596.62 440.787 600.248 443.606 603.704 443.863C608.533 444.221 612.935 439.635 618.031 434.326C624.599 427.486 632.042 419.735 643.293 418.762C656.807 417.592 658.009 405.454 659.173 393.717C660.213 383.226 661.194 373.316 670.805 371.923C679.864 370.61 685.692 367.57 688.131 362.884C690.164 358.978 689.74 353.934 686.898 348.298C684.208 342.961 688.089 335.444 692.198 327.489C696.656 318.858 701.264 309.932 696.646 304.43C695.95 303.601 695.106 303.181 694.067 303.142C688.851 302.969 679.999 312.077 670.631 321.734C659.773 332.929 648.549 344.498 640.335 344.499L640.021 344.494C632.598 344.218 630.027 352.873 627.053 362.893C623.786 373.907 620.082 386.391 608.63 389.117C599.493 391.294 595.496 392.507 594.39 394.387C593.608 395.712 594.146 397.628 595.038 400.804C595.693 403.142 596.507 406.052 597.123 409.88C599.523 424.842 594.012 433.378 592.622 435.249ZM604.246 445.112C604.035 445.112 603.825 445.104 603.612 445.089C599.638 444.795 595.744 441.774 591.353 435.588L591.078 435.2L591.386 434.836C591.456 434.75 598.493 426.175 595.91 410.075C595.306 406.317 594.501 403.444 593.853 401.135C592.907 397.765 592.284 395.541 593.329 393.764C594.657 391.51 598.243 390.328 608.346 387.921C619.105 385.359 622.701 373.237 625.875 362.543C628.865 352.471 631.696 342.97 640.066 343.264C647.759 343.559 659.442 331.504 669.747 320.879C679.313 311.019 688.338 301.73 694.111 301.913C695.497 301.964 696.666 302.544 697.586 303.64C702.732 309.768 697.932 319.064 693.291 328.054C689.331 335.723 685.59 342.966 687.996 347.744C691.022 353.747 691.447 359.181 689.221 363.452C686.59 368.507 680.453 371.768 670.982 373.139C662.323 374.396 661.389 383.839 660.396 393.837C659.242 405.506 657.929 418.729 643.399 419.987C632.609 420.921 625.336 428.495 618.919 435.178C613.816 440.493 609.38 445.112 604.246 445.112Z" fill="url(#paint3_linear)"/>
<path d="M579.079 274.452C578.118 274.452 577.396 274.677 576.858 275.133C574.596 277.058 574.772 283.622 575.092 295.539C575.198 299.493 575.318 303.974 575.377 309.16C575.514 320.938 579.067 328.453 581.661 333.941C585.231 341.498 587.387 346.058 575.724 352.779C571.153 355.415 568.507 358.448 567.64 362.05C565.959 369.042 571.364 377.372 576.593 385.427C578.622 388.556 580.722 391.788 582.386 394.916C584.546 398.972 586.732 405.2 589.047 411.795C593.546 424.61 598.646 439.137 604.375 439.658C606.562 439.853 608.862 437.872 611.212 433.761C616.719 424.124 616.405 415.797 616.044 406.153C615.562 393.262 615.013 378.649 628.661 357.079C634.142 348.412 636.043 341.584 634.466 336.208C632.537 329.626 625.747 326.457 619.756 323.662C615.32 321.592 611.487 319.804 610.71 316.941C610.327 315.525 610.714 314.008 611.893 312.298C615.608 306.919 616.839 302.867 615.657 299.911C613.955 295.649 607.036 293.673 600.492 292.304C592.249 290.578 589.443 285.337 587.187 281.128C585.498 277.975 584.04 275.254 580.773 274.633C580.14 274.512 579.576 274.452 579.079 274.452ZM604.695 440.902C604.551 440.902 604.407 440.895 604.264 440.881C597.746 440.288 592.735 426.01 587.888 412.202C585.589 405.653 583.417 399.466 581.301 395.495C579.662 392.414 577.577 389.202 575.56 386.095C570.191 377.823 564.639 369.268 566.447 361.762C567.397 357.813 570.23 354.528 575.11 351.715C585.791 345.559 584.149 342.084 580.549 334.467C577.906 328.877 574.288 321.222 574.147 309.175C574.088 303.997 573.969 299.521 573.862 295.572C573.522 282.875 573.351 276.503 576.062 274.197C577.185 273.243 578.755 272.997 581.003 273.424C584.848 274.156 586.51 277.262 588.271 280.547C590.516 284.741 593.062 289.492 600.744 291.099C607.953 292.608 614.887 294.664 616.799 299.455C618.145 302.823 616.873 307.253 612.905 312.997C611.944 314.39 611.613 315.574 611.897 316.618C612.525 318.932 616.116 320.606 620.276 322.547C626.194 325.31 633.56 328.747 635.647 335.863C637.328 341.6 635.382 348.755 629.7 357.735C616.256 378.984 616.796 393.396 617.273 406.108C617.627 415.53 617.96 424.428 612.279 434.37C609.772 438.76 607.286 440.901 604.695 440.902Z" fill="url(#paint4_linear)"/>
<path d="M604.824 448.521L603.652 448.151C610.221 427.383 598.336 380.788 594.795 369.449C593.053 363.873 594.662 355.479 596.22 347.361C598.23 336.877 600.31 326.035 595.007 321.972C585.052 314.339 585.577 296.681 585.603 295.933L586.831 295.979C586.826 296.155 586.306 313.751 595.755 320.996C601.661 325.521 599.509 336.742 597.426 347.592C595.9 355.561 594.319 363.8 595.967 369.082C600.35 383.106 611.378 427.804 604.824 448.521Z" fill="url(#paint5_linear)"/>
<path d="M596.018 443.716C591.214 443.716 586.758 426.778 580.654 419.012C573.454 409.848 570.509 395.446 561.999 384.974C553.491 374.502 529.599 371.23 540.073 354.538C542.385 350.854 543.851 347.473 544.722 344.334C546.47 343.502 547.678 341.72 547.678 339.655V309.275C548.056 309.204 548.443 309.168 548.83 309.168C551.36 309.168 553.963 310.675 555.127 313.628C563.636 335.228 580.254 331.578 578.345 341.023C574.017 362.428 587.2 365.337 600.31 374.83C613.418 384.32 600.31 393.644 599.656 408.372C599.002 423.099 604.546 433.739 598.654 441.921C597.756 443.168 596.882 443.716 596.018 443.716Z" fill="url(#paint6_linear)"/>
<path d="M608.193 443.815C608.12 443.381 600.843 400.24 584.547 388.417C567.931 376.361 564.911 365.224 559.107 338.961L560.309 338.697C566.042 364.635 569.016 375.631 585.269 387.423C601.973 399.541 609.11 441.821 609.407 443.614L608.193 443.815Z" fill="white"/>
<path d="M593.491 442.27C593.491 442.27 598.332 430.295 589.52 413.276C580.707 396.254 573.576 398.873 594.818 385.779C616.06 372.686 594.951 331.444 613.034 326.208C631.116 320.97 646.827 254.217 660.576 262.717C674.324 271.217 655.993 303.95 665.812 313.769C675.633 323.59 676.942 336.085 656.648 346.201C636.353 356.32 671.051 394.946 643.555 406.729C616.06 418.512 623.946 464.717 593.491 442.27Z" fill="url(#paint7_linear)"/>
<path d="M601.889 454.969C601.858 454.815 598.902 439.484 608.243 419.675C617.759 399.493 622.314 377.431 620.429 360.657C619.405 351.573 625.224 348.021 630.853 344.583C636.394 341.2 642.123 337.702 641.807 328.752C641.522 320.667 644.944 301.713 645.089 300.911L646.3 301.132C646.264 301.326 642.754 320.756 643.036 328.71C643.377 338.378 637.336 342.066 631.493 345.632C625.95 349.018 620.715 352.214 621.651 360.519C623.56 377.51 618.966 399.819 609.355 420.197C600.199 439.617 603.064 454.577 603.095 454.725L601.889 454.969Z" fill="white"/>
<path d="M624.107 370.369C630.282 364.635 638.447 363.808 636.746 372.315C635.046 380.821 629.211 383.253 632.129 388.6C635.046 393.947 639.906 399.294 631.643 405.858C623.378 412.421 618.76 413.148 616.329 425.547C613.898 437.942 614.385 446.408 603.689 446.937C592.994 447.464 597.127 431.864 600.529 424.815C600.529 424.815 605.634 416.773 602.23 406.21C598.827 395.649 592.265 389.944 606.12 386.356C619.975 382.766 619.945 374.236 624.107 370.369Z" fill="white"/>
<path d="M604.462 454.861C604.427 453.344 603.693 417.635 610.373 411.624C617.194 405.485 618.504 394.636 618.678 388.717C618.906 381.003 628.87 376.423 629.296 376.233L629.8 377.353C629.704 377.397 620.111 381.809 619.906 388.752C619.687 396.223 617.998 406.415 611.194 412.538C604.932 418.175 605.683 454.467 605.692 454.833L604.462 454.861Z" fill="url(#paint8_linear)"/>
<path d="M629.549 440.286L618.469 482.32H593.709L582.631 440.286H629.549Z" fill="url(#paint9_linear)"/>
<path d="M629.549 440.286C629.549 440.286 605.159 444.866 605.159 482.32H593.709L582.631 440.286H629.549Z" fill="url(#paint10_linear)"/>
<path d="M193.064 334.137H160.455V330.444H193.064V334.137Z" fill="#1487E3"/>
<path d="M153.648 228.572H101.603V162.014H102.833V227.342H153.648V228.572Z" fill="#78C2FF"/>
<path d="M373.941 184.716H372.711V116.085H438.944V58.3665H440.175V117.315H373.941V184.716Z" fill="#78C2FF"/>
<path d="M587.906 261.168H518.994V259.937H586.675V219.923H587.906V261.168Z" fill="#78C2FF"/>
<path d="M72.6998 316.778C72.6998 316.778 71.225 337.483 75.2689 339.96C77.8031 341.513 87.9076 346.748 87.6082 347.732C87.3089 348.713 81.9024 356.466 81.9024 356.466C81.9024 356.466 62.4934 343.685 61.8676 339.658C61.256 335.722 62.8224 309.342 65.4908 308.126C67.4895 307.215 68.5437 307.969 71.0637 309.839C74.5966 312.462 72.6998 316.778 72.6998 316.778Z" fill="#FF7E55"/>
<path d="M70.4431 467.454C70.4431 467.454 69.8392 471.644 69.7656 472.272C69.6895 472.902 63.0508 471.902 63.0508 471.902L62.5128 466.915C62.5128 466.915 69.6147 466.863 70.4431 467.454Z" fill="#424773"/>
<path d="M69.8366 471.739C69.8366 471.739 71.9373 474.264 73.9734 475.365C76.0082 476.464 79.2031 476.9 80.4082 478.041C81.2753 478.863 83.5708 482.401 75.1205 482.33C66.6702 482.259 62.5979 482.831 61.6934 481.473C60.7876 480.117 63.0031 471.457 63.0031 471.457C63.0031 471.457 65.0031 472.175 69.8366 471.739Z" fill="#292C47"/>
<path d="M103.669 467.454C103.669 467.454 103.064 471.644 102.989 472.272C102.913 472.902 96.2753 471.902 96.2753 471.902L95.7386 466.915C95.7386 466.915 102.84 466.863 103.669 467.454Z" fill="#424773"/>
<path d="M103.061 471.739C103.061 471.739 105.163 474.264 107.198 475.365C109.233 476.464 116.719 477.369 117.922 478.508C118.79 479.33 120.234 482.641 108.346 482.33C99.8985 482.109 95.8237 482.831 94.9166 481.473C94.0121 480.117 96.2276 471.457 96.2276 471.457C96.2276 471.457 98.1127 472.224 103.061 471.739Z" fill="#292C47"/>
<path d="M72.825 359.805C72.825 359.805 66.5876 369.717 67.0521 378.675C67.5179 387.635 66.4973 397.205 65.5592 406.562C64.5153 416.996 61.6689 438.708 61.514 444.288C61.3579 449.87 61.7179 470.869 61.7179 470.869L72.5373 470.788C72.5373 470.788 76.3786 428.365 78.2405 423.959C80.1011 419.552 87.7411 387.681 88.0521 384.156C88.3618 380.632 72.825 359.805 72.825 359.805Z" fill="#292C47"/>
<path d="M105.662 361.148C105.662 361.148 108.127 385.503 108.748 390.987C109.367 396.47 108.944 420.228 109.252 423.657C109.564 427.082 107.18 463.329 106.593 470.231L94.6998 470.156C94.6998 470.156 93.8792 440.835 93.8792 426.59C93.8792 412.343 90.2237 395.76 86.0353 386.36C81.8469 376.96 72.2598 376.738 69.6856 359.299C69.6856 359.299 102.177 355.618 105.662 361.148Z" fill="#292C47"/>
<path d="M79.4147 276.245C79.4147 276.245 86.8469 271.28 92.0663 276.599C97.2856 281.916 99.8508 294.421 96.1037 296.917C92.3553 299.413 85.9966 300.067 82.9786 296.68C79.9605 293.295 76.7386 288.13 75.9476 284.36C75.154 280.587 77.5295 277.832 79.4147 276.245Z" fill="#EEA886"/>
<path d="M93.576 297.759C93.576 297.759 93.4792 302.983 94.0547 304.097C94.6315 305.21 83.2082 305.239 83.2082 305.239C83.2082 305.239 82.2805 299.182 80.5218 294.064C78.7631 288.946 93.576 297.759 93.576 297.759Z" fill="#EEA886"/>
<path d="M80.8082 293.981C80.8082 293.981 81.874 295.066 84.8908 293.836C87.9076 292.606 90.7463 287.538 91.945 286.774C93.1476 286.008 92.9773 285.236 92.9773 285.236L94.0792 286.24L95.4882 285.999C95.4882 285.999 93.3424 282.57 94.896 280.6C96.4495 278.628 90.0689 268.999 80.8495 274.879C80.8495 274.879 73.6353 278.824 74.9489 283.146C76.265 287.468 78.5656 292.202 80.8082 293.981Z" fill="#754836"/>
<path d="M94.7321 303.963C94.7321 303.963 94.6973 301.836 93.7321 301.631C92.7682 301.427 83.087 300.495 81.9024 300.963V303.44C81.9024 303.44 84.185 304.844 94.7321 303.963Z" fill="#E2D2CA"/>
<path d="M92.394 283.689C92.0456 282.993 89.6766 281.332 89.4908 283.752C89.305 286.174 91.8198 288.778 92.7618 288.284C93.705 287.788 93.2792 285.449 92.394 283.689Z" fill="#EEA886"/>
<path d="M77.2663 277.524C77.2663 277.524 66.6366 280.374 80.3773 293.569L77.2663 277.524Z" fill="#754836"/>
<path d="M172.235 334.039L161.403 333.938C162.339 333.395 163.849 332.417 163.515 331.97C163.038 331.335 159.971 332.73 158.724 332.858C157.581 332.974 155.665 332.827 154.211 333.357L150.79 334.815L153.926 337.717C153.926 337.717 159.591 338.53 161.249 338.646C163.946 338.836 172.198 335.624 172.333 335.137C172.58 334.259 172.235 334.039 172.235 334.039Z" fill="#EEA886"/>
<path d="M108.873 306.911C101.984 305.701 94.7321 303.963 94.7321 303.963L81.9024 303.439C81.9024 303.439 70.1282 306.031 65.4908 308.126C65.0508 308.325 65.0508 318.631 63.8418 321.333L67.6869 329.444C67.6869 329.444 69.9076 345.511 70.3682 352.655C70.5798 355.937 65.7889 383.417 65.7889 383.417C65.7889 383.417 70.9218 384.928 79.6792 385.893C88.4353 386.858 110.314 385.544 110.451 384.511C110.59 383.476 106.215 346.001 106.02 344.061C105.723 341.083 106.88 327.32 106.88 327.32C108.531 329.534 118.069 337.848 122.726 340.489C126.038 342.368 134.163 341.219 136.557 340.977C141.736 340.445 156.046 339.422 156.326 338.913C156.549 338.609 155.502 333.391 154.904 333.191C154.38 333.017 135.908 332.104 131.274 332.343C129.394 332.443 123.261 325.593 123.261 325.593C123.261 325.593 112.674 308.618 108.873 306.911Z" fill="#FF7E55"/>
<path d="M29.9722 255.05H63.8844V284.805L58.7076 279.63H29.9722V255.05Z" fill="#FFCB55"/>
<path d="M544.229 175.726H574.98V144.975H544.229V175.726ZM576.078 176.826H543.129V143.877H576.078V176.826Z" fill="#6AAFE8"/>
<path d="M583.764 154.859H656.983V149.003H583.764V154.859ZM658.082 155.957H582.669V147.903H658.082V155.957Z" fill="#6AAFE8"/>
<path d="M544.229 192.315H656.984V186.458H544.229V192.315ZM658.082 193.413H543.129V185.36H658.082V193.413Z" fill="#6AAFE8"/>
<path d="M544.229 207.782H615.249V201.925H544.229V207.782ZM616.347 208.881H543.129V200.826H616.347V208.881Z" fill="#6AAFE8"/>
<path d="M583.764 170.223H632.638V164.366H583.764V170.223ZM633.737 171.323H582.669V163.267H633.737V171.323Z" fill="#6AAFE8"/>
<path d="M531.141 225.298H670.071V127.459H531.141V225.298ZM671.171 226.396H530.043V126.361H671.171V226.396Z" fill="#6AAFE8"/>
<path d="M480.282 81.56H469.723V80.329H479.052V71.009H480.282V81.56Z" fill="#6AAFE8"/>
<path d="M409.278 81.56H398.717V71.009H399.949V80.329H409.278V81.56Z" fill="#6AAFE8"/>
<path d="M399.953 10.56H398.722V2.00272e-05H409.274V1.23099H399.953V10.56Z" fill="#6AAFE8"/>
<path d="M480.282 10.5562H479.052V1.23622H469.723V0.00524616H480.282V10.5562Z" fill="#6AAFE8"/>
<path d="M480.282 55.2426H479.052V26.3226H480.282V55.2426Z" fill="#6AAFE8"/>
<path d="M399.949 55.2426H398.717V26.3226H399.949V55.2426Z" fill="#6AAFE8"/>
<path d="M102.219 154.822C100.404 154.822 98.9282 156.297 98.9282 158.11C98.9282 159.924 100.404 161.399 102.219 161.399C104.031 161.399 105.506 159.924 105.506 158.11C105.506 156.297 104.031 154.822 102.219 154.822ZM102.219 162.63C99.7257 162.63 97.6986 160.603 97.6986 158.11C97.6986 155.618 99.7257 153.591 102.219 153.591C104.71 153.591 106.737 155.618 106.737 158.11C106.737 160.603 104.71 162.63 102.219 162.63Z" fill="#78C2FF"/>
<path d="M439.559 51.1729C437.746 51.1729 436.27 52.6477 436.27 54.4619C436.27 56.2748 437.746 57.7509 439.559 57.7509C441.373 57.7509 442.848 56.2748 442.848 54.4619C442.848 52.6477 441.373 51.1729 439.559 51.1729ZM439.559 58.9819C437.068 58.9819 435.04 56.9535 435.04 54.4619C435.04 51.9703 437.068 49.9432 439.559 49.9432C442.051 49.9432 444.079 51.9703 444.079 54.4619C444.079 56.9535 442.051 58.9819 439.559 58.9819Z" fill="#78C2FF"/>
<path d="M587.292 212.942C585.479 212.942 584.002 214.418 584.002 216.231C584.002 218.044 585.479 219.52 587.292 219.52C589.105 219.52 590.581 218.044 590.581 216.231C590.581 214.418 589.105 212.942 587.292 212.942ZM587.292 220.751C584.8 220.751 582.772 218.723 582.772 216.231C582.772 213.739 584.8 211.711 587.292 211.711C589.784 211.711 591.811 213.739 591.811 216.231C591.811 218.723 589.784 220.751 587.292 220.751Z" fill="#78C2FF"/>
<path d="M102.402 35.9019H130.963V7.34064H102.402V35.9019ZM132.194 37.1317H101.172V6.10841H132.194V37.1317Z" fill="#A1D4FF"/>
<path d="M117.297 29.0246H116.068V14.5652H117.297V29.0246Z" fill="#A1D4FF"/>
<path d="M123.911 22.4103H109.453V21.1794H123.911V22.4103Z" fill="#A1D4FF"/>
<path d="M561.834 73.3239H603.715V44.1291H561.834V73.3239ZM604.946 74.5549H560.602V42.8994H604.946V74.5549Z" fill="#A1D4FF"/>
<path d="M582.775 62.0723L560.827 43.9897L561.611 43.04L582.775 60.4787L603.941 43.04L604.723 43.9897L582.775 62.0723Z" fill="#A1D4FF"/>
<path d="M603.885 74.3626L587.969 57.5833L588.864 56.7355L604.778 73.5162L603.885 74.3626Z" fill="#A1D4FF"/>
<path d="M561.665 74.3626L560.772 73.5162L576.687 56.7355L577.58 57.5833L561.665 74.3626Z" fill="#A1D4FF"/>
<path d="M210.007 95.9032C209.155 95.9032 208.315 96.3019 207.785 97.0465C207.363 97.6387 207.198 98.36 207.318 99.0774C207.439 99.7948 207.833 100.423 208.425 100.844C209.017 101.266 209.737 101.431 210.456 101.311C211.172 101.19 211.8 100.796 212.221 100.204C212.643 99.6116 212.809 98.8903 212.688 98.1729C212.568 97.4568 212.175 96.8284 211.582 96.4078C211.104 96.0671 210.553 95.9032 210.007 95.9032ZM209.995 102.272C209.244 102.272 208.513 102.04 207.89 101.596C206.251 100.431 205.866 98.1497 207.033 96.5123C208.198 94.8736 210.48 94.489 212.117 95.6555C212.91 96.2194 213.438 97.0594 213.599 98.0207C213.76 98.9807 213.539 99.9458 212.973 100.739C212.409 101.533 211.569 102.059 210.608 102.221C210.404 102.255 210.199 102.272 209.995 102.272ZM207.714 103.806L207.984 103.91C208.473 104.098 208.986 104.215 209.514 104.261L209.8 104.285L210.197 105.319L212.013 105.013L212.048 103.907L212.313 103.788C212.794 103.574 213.24 103.294 213.642 102.957L213.864 102.77L214.874 103.222L215.941 101.721L215.184 100.915L215.287 100.644C215.477 100.156 215.591 99.6413 215.639 99.1148L215.664 98.8271L216.696 98.4323L216.391 96.6155L215.284 96.5794L215.166 96.3161C214.951 95.8361 214.673 95.3884 214.335 94.9858L214.148 94.7652L214.599 93.7561L213.1 92.6877L212.292 93.4439L212.022 93.3407C211.532 93.1536 211.019 93.0361 210.493 92.991L210.207 92.9652L209.809 91.9316L207.994 92.2374L207.958 93.3445L207.693 93.4619C207.212 93.6774 206.766 93.9561 206.363 94.2942L206.144 94.48L205.133 94.0297L204.065 95.5303L204.822 96.3368L204.718 96.6065C204.531 97.0942 204.412 97.609 204.367 98.1355L204.342 98.4232L203.309 98.8194L203.616 100.635L204.723 100.671L204.839 100.934C205.053 101.416 205.335 101.863 205.673 102.265L205.859 102.485L205.408 103.495L206.908 104.564L207.714 103.806ZM209.604 106.355L209.142 105.148C208.729 105.094 208.324 105.001 207.929 104.871L206.988 105.754L204.256 103.809L204.784 102.631C204.528 102.301 204.308 101.947 204.122 101.575L202.83 101.534L202.274 98.2271L203.48 97.7652C203.533 97.351 203.628 96.9458 203.759 96.5523L202.875 95.6103L204.82 92.8787L205.998 93.4052C206.328 93.1523 206.68 92.9303 207.053 92.7445L207.095 91.4529L210.4 90.8968L210.862 92.1019C211.275 92.1561 211.683 92.249 212.077 92.3807L213.019 91.4968L215.751 93.4413L215.224 94.6206C215.478 94.9497 215.697 95.3032 215.884 95.6762L217.176 95.7161L217.732 99.0232L216.527 99.4852C216.471 99.8993 216.379 100.306 216.247 100.699L217.132 101.64L215.186 104.373L214.008 103.846C213.679 104.099 213.327 104.32 212.954 104.507L212.911 105.797L209.604 106.355Z" fill="#A1D4FF"/>
<path d="M184.625 86.1574C182.52 86.1574 180.443 87.1406 179.133 88.9832C178.089 90.449 177.68 92.2322 177.979 94.0051C178.278 95.7768 179.248 97.3277 180.713 98.3703C183.737 100.523 187.949 99.8129 190.101 96.7884C191.142 95.3252 191.553 93.5407 191.255 91.7678C190.955 89.9949 189.985 88.4452 188.519 87.4026C187.337 86.5613 185.975 86.1574 184.625 86.1574ZM184.606 100.845C183.009 100.845 181.397 100.366 179.999 99.3729C176.424 96.8271 175.585 91.8464 178.13 88.2697C180.675 84.6929 185.655 83.8542 189.233 86.4C192.809 88.9445 193.649 93.9265 191.104 97.5019C189.553 99.6826 187.096 100.845 184.606 100.845ZM179.438 105.359L179.798 105.495C180.967 105.945 182.195 106.225 183.447 106.333L183.831 106.366L184.776 108.831L189.691 108.003L189.775 105.365L190.126 105.208C191.275 104.695 192.344 104.027 193.3 103.222L193.595 102.974L196.004 104.049L198.893 99.9871L197.09 98.0645L197.226 97.7045C197.674 96.5368 197.955 95.3084 198.064 94.0555L198.096 93.671L200.562 92.7265L199.732 87.8116L197.095 87.7277L196.937 87.3768C196.425 86.2271 195.755 85.1587 194.951 84.2039L194.704 83.9084L195.779 81.4994L191.719 78.6091L189.794 80.4142L189.435 80.2761C188.266 79.8284 187.039 79.5471 185.786 79.44L185.4 79.4065L184.459 76.9419L179.542 77.7691L179.459 80.4078L179.106 80.5652C177.958 81.0774 176.89 81.7458 175.932 82.551L175.638 82.7987L173.229 81.7239L170.34 85.7845L172.145 87.7084L172.006 88.0684C171.558 89.2361 171.278 90.4645 171.17 91.7174L171.136 92.1019L168.671 93.0452L169.5 97.9613L172.139 98.0439L172.295 98.3961C172.807 99.5445 173.475 100.613 174.282 101.57L174.528 101.866L173.453 104.274L177.515 107.164L179.438 105.359ZM183.986 110.212L182.955 107.52C181.851 107.396 180.766 107.148 179.723 106.781L177.624 108.751L171.919 104.692L173.093 102.062C172.404 101.196 171.813 100.253 171.335 99.2503L168.453 99.1587L167.291 92.2555L169.982 91.2258C170.106 90.1213 170.355 89.0361 170.723 87.9923L168.753 85.8929L172.809 80.1897L175.44 81.3639C176.306 80.6735 177.251 80.0839 178.253 79.6039L178.344 76.7239L185.247 75.56L186.278 78.2516C187.381 78.3768 188.465 78.6245 189.511 78.9936L191.611 77.0219L197.313 81.0813L196.139 83.7097C196.829 84.5768 197.419 85.5187 197.9 86.5226L200.779 86.6142L201.942 93.5174L199.251 94.5471C199.127 95.6516 198.878 96.7355 198.509 97.7806L200.482 99.88L196.421 105.583L193.793 104.409C192.927 105.099 191.984 105.689 190.98 106.169L190.89 109.049L183.986 110.212Z" fill="#A1D4FF"/>
<path d="M22.9586 113.494C12.059 113.494 3.19303 104.626 3.19303 93.7265C3.19303 82.8271 12.059 73.96 22.9586 73.96C33.8583 73.96 42.7253 82.8271 42.7253 93.7265H41.4944C41.4944 83.5058 33.179 75.191 22.9586 75.191C12.7369 75.191 4.42283 83.5058 4.42283 93.7265C4.42283 103.947 12.7369 112.263 22.9586 112.263V113.494ZM22.9586 116.685C10.2999 116.685 0 106.386 0 93.7265H1.2298C1.2298 105.708 10.9778 115.454 22.9586 115.454C34.9395 115.454 44.6875 105.708 44.6875 93.7265C44.6875 81.7458 34.9395 71.9987 22.9586 71.9987V70.7678C35.6174 70.7678 45.9173 81.0671 45.9173 93.7265C45.9173 106.386 35.6174 116.685 22.9586 116.685Z" fill="#78C2FF"/>
<path d="M20.1462 101.333L11.8649 93.0516L12.7353 92.1819L20.1462 99.5922L33.1829 86.5561L34.0524 87.4258L20.1462 101.333Z" fill="#78C2FF"/>
<path d="M507.802 375.226H158.999L120.829 517.893H545.971L507.802 375.226Z" fill="url(#paint11_linear)"/>
<path d="M172.195 400.255H193.625C194.52 400.255 195.197 400.952 195.029 401.703L192.954 411.026C192.825 411.6 192.235 412.015 191.55 412.015H169.753C168.838 412.015 168.158 411.293 168.358 410.53L170.8 401.209C170.945 400.653 171.524 400.255 172.195 400.255Z" fill="white"/>
<path d="M203.452 400.255H219.652L217.497 412.015H200.988L203.452 400.255Z" fill="white"/>
<path d="M227.754 400.255H243.954L242.26 412.015L225.749 412.032L227.754 400.255Z" fill="white"/>
<path d="M252.055 400.255H268.256L267.024 412.015H250.514L252.055 400.255Z" fill="white"/>
<path d="M276.357 400.255H292.558L291.786 412.015H275.278L276.357 400.255Z" fill="white"/>
<path d="M300.657 400.255H316.86L316.553 412.015L300.042 412.032L300.657 400.255Z" fill="white"/>
<path d="M495.125 400.255H470.824L473.442 412.015H498.206L495.125 400.255Z" fill="white"/>
<path d="M462.723 400.255H446.522L448.679 412.015H465.187L462.723 400.255Z" fill="white"/>
<path d="M438.422 400.255H422.22L423.914 412.015L440.426 412.032L438.422 400.255Z" fill="white"/>
<path d="M414.12 400.255H397.918L399.15 412.015H415.66L414.12 400.255Z" fill="white"/>
<path d="M389.818 400.255H373.616L374.387 412.015H390.896L389.818 400.255Z" fill="white"/>
<path d="M365.517 400.255H349.314L349.624 412.015L366.133 412.032L365.517 400.255Z" fill="white"/>
<path d="M324.959 400.255H341.162L341.429 412.015H324.959V400.255Z" fill="white"/>
<path d="M165.066 420.778H198.922L196.991 432.911H162.496L165.066 420.778Z" fill="white"/>
<path d="M500.411 420.778H458.563L460.947 432.911H503.589L500.411 420.778Z" fill="white"/>
<path d="M450.194 420.778H433.456L435.363 432.911H452.418L450.194 420.778Z" fill="white"/>
<path d="M425.087 420.778H408.348L409.778 432.911H426.834L425.087 420.778Z" fill="white"/>
<path d="M399.98 420.778H383.24L384.193 432.911H401.249L399.98 420.778Z" fill="white"/>
<path d="M374.871 420.778H358.132L358.608 432.911H375.665L374.871 420.778Z" fill="white"/>
<path d="M160.009 442.404H194.62L192.095 454.454H156.852L160.009 442.404Z" fill="white"/>
<path d="M203.273 442.404H220.577L218.526 454.454H200.905L203.273 442.404Z" fill="white"/>
<path d="M229.23 442.404H359.008L359.491 454.454H227.336L229.23 442.404Z" fill="white"/>
<path d="M367.671 442.404H384.975L385.922 454.454H368.301L367.671 442.404Z" fill="white"/>
<path d="M393.629 442.404H410.933L412.354 454.454H394.732L393.629 442.404Z" fill="white"/>
<path d="M419.586 442.404H436.889L438.785 454.454H421.164L419.586 442.404Z" fill="white"/>
<path d="M445.544 442.404H462.848L465.216 454.454H447.595L445.544 442.404Z" fill="white"/>
<path d="M471.502 442.404H506.111L509.267 454.454H474.027L471.502 442.404Z" fill="white"/>
<path d="M349.798 420.778H333.195V432.911H350.117L349.798 420.778Z" fill="white"/>
<path d="M324.691 420.778H307.953L307.474 432.911H324.531L324.691 420.778Z" fill="white"/>
<path d="M299.582 420.778H282.846L281.891 432.911H298.948L299.582 420.778Z" fill="white"/>
<path d="M274.475 420.778H257.737L256.305 432.911H273.363L274.475 420.778Z" fill="white"/>
<path d="M249.367 420.778H232.629L230.72 432.911H247.777L249.367 420.778Z" fill="white"/>
<path d="M224.258 420.778H207.52L205.137 432.911H222.194L224.258 420.778Z" fill="white"/>
<path d="M172.986 392.864L175.736 382.365H183.602L181.035 392.864H172.986Z" fill="white"/>
<path d="M191.469 382.365H207.2L204.999 392.864H188.993L191.469 382.365Z" fill="white"/>
<path d="M215.068 382.365H230.799L229.012 392.864H213.004L215.068 382.365Z" fill="white"/>
<path d="M238.666 382.365H254.398L253.022 392.864H237.016L238.666 382.365Z" fill="white"/>
<path d="M262.264 382.365H277.997L277.034 392.864H261.026L262.264 382.365Z" fill="white"/>
<path d="M285.862 382.365H301.595L301.046 392.864H285.038L285.862 382.365Z" fill="white"/>
<path d="M309.461 382.365H325.194L325.056 392.864H309.049L309.461 382.365Z" fill="white"/>
<path d="M333.06 382.365H348.793L349.068 392.864H333.06V382.365Z" fill="white"/>
<path d="M356.658 382.365H372.391L373.079 392.864H357.071L356.658 382.365Z" fill="white"/>
<path d="M380.257 382.365H395.99L397.091 392.864H381.083L380.257 382.365Z" fill="white"/>
<path d="M403.856 382.365H419.589L421.101 392.864H405.093L403.856 382.365Z" fill="white"/>
<path d="M427.455 382.365H443.187L445.113 392.864H429.105L427.455 382.365Z" fill="white"/>
<path d="M451.053 382.365H466.785L469.124 392.864H453.117L451.053 382.365Z" fill="white"/>
<path d="M474.652 382.365H490.384L493.135 392.864H477.127L474.652 382.365Z" fill="white"/>
<path d="M534.864 529H131.935C125.802 529 120.829 524.027 120.829 517.893H545.971C545.971 524.027 540.998 529 534.864 529Z" fill="#FD4370"/>
<path d="M382.822 471.791C382.407 469.279 380.235 467.438 377.688 467.438H333.399H289.11C286.564 467.438 284.394 469.279 283.978 471.791L278.444 505.279C277.92 508.448 280.366 511.328 283.576 511.328H333.399H383.224C386.435 511.328 388.879 508.448 388.357 505.279L382.822 471.791Z" fill="#141628"/>
<path d="M229.12 187.301H193.064V183.609H229.12V187.301Z" fill="#E0E0E0"/>
<path d="M265.243 215.098H239.211V211.408H265.243V215.098Z" fill="#E0E0E0"/>
<path d="M286.572 215.098H269.298V211.408H286.572V215.098Z" fill="#1487E3"/>
<path d="M210.749 285.006H193.474V281.314H210.749V285.006Z" fill="#1487E3"/>
<path d="M331.696 215.098H289.988V211.408H331.696V215.098Z" fill="#E0E0E0"/>
<path d="M220.274 271.004H193.474V267.312H220.274V271.004Z" fill="#E0E0E0"/>
<path d="M247.195 298.904H230.834V295.214H247.195V298.904Z" fill="#E0E0E0"/>
<path d="M225.889 298.904H193.474V295.214H225.889V298.904Z" fill="#1487E3"/>
<path d="M211.353 312.805H193.474V309.112H211.353V312.805Z" fill="#E0E0E0"/>
<path d="M261.729 187.301H236.133V183.609H261.729V187.301Z" fill="#78C2FF"/>
<path d="M261.729 228.999H236.133V225.307H261.729V228.999Z" fill="#1487E3"/>
<path d="M234.273 242.898H223.336V239.205H234.273V242.898Z" fill="#E0E0E0"/>
<path d="M236.966 257.001H212.4V253.311H236.966V257.001Z" fill="#78C2FF"/>
<path d="M274.589 257.001H240.678V253.311H274.589V257.001Z" fill="#1487E3"/>
<path d="M219.07 243H193.474V239.308H219.07V243Z" fill="#1487E3"/>
<path d="M208.661 257.001H193.474V253.311H208.661V257.001Z" fill="#1487E3"/>
<path d="M253.758 243H239.429V239.308H253.758V243Z" fill="#FF8761"/>
<path d="M208.23 326.703H193.904V323.013H208.23V326.703Z" fill="#FF8761"/>
<path d="M218.967 215.098H193.372V211.408H218.967V215.098Z" fill="#78C2FF"/>
<path d="M241.603 285.006H216.007V281.314H241.603V285.006Z" fill="#78C2FF"/>
<path d="M241.918 312.805H216.323V309.112H241.918V312.805Z" fill="#78C2FF"/>
<path d="M287.386 312.805H261.791V309.112H287.386V312.805Z" fill="#78C2FF"/>
<path d="M229.859 228.999H193.372V225.307H229.859V228.999Z" fill="#78C2FF"/>
<path d="M389.945 187.301H364.35V183.609H389.945V187.301Z" fill="#78C2FF"/>
<path d="M298.763 326.703H273.168V323.013H298.763V326.703Z" fill="#78C2FF"/>
<path d="M415.043 187.301H397.907V183.609H415.043V187.301Z" fill="#78C2FF"/>
<path d="M473.009 201.199H455.876V197.508H473.009V201.199Z" fill="#78C2FF"/>
<path d="M301.233 187.301H268.621V183.609H301.233V187.301Z" fill="#1487E3"/>
<path d="M428.289 201.199H395.68V197.508H428.289V201.199Z" fill="#1487E3"/>
<path d="M388.296 215.098H355.686V211.408H388.296V215.098Z" fill="#1487E3"/>
<path d="M345.839 228.999H313.229V225.307H345.839V228.999Z" fill="#1487E3"/>
<path d="M415.581 215.098H392.399V211.408H415.581V215.098Z" fill="#78C2FF"/>
<path d="M357.959 187.301H325.35V183.609H357.959V187.301Z" fill="#FF8761"/>
<path d="M307.26 228.999H288.14V225.307H307.26V228.999Z" fill="#FF8761"/>
<path d="M292.288 285.212H273.168V281.519H292.288V285.212Z" fill="#FF8761"/>
<path d="M319.198 187.301H307.26V183.609H319.198V187.301Z" fill="#E0E0E0"/>
<path d="M280.557 228.999H268.621V225.307H280.557V228.999Z" fill="#E0E0E0"/>
<path d="M448.092 201.199H436.154V197.508H448.092V201.199Z" fill="#E0E0E0"/>
<path d="M211.738 201.199H193.064V197.508H211.738V201.199Z" fill="#1487E3"/>
<path d="M257.633 271.106H242.891V267.414H257.633V271.106Z" fill="#1487E3"/>
<path d="M222.351 201.199H216.323V197.508H222.351V201.199Z" fill="#1487E3"/>
<path d="M389.945 201.199H340.106V197.508H389.945V201.199Z" fill="#E0E0E0"/>
<path d="M342.127 312.805H292.288V309.112H342.127V312.805Z" fill="#E0E0E0"/>
<path d="M232.935 201.199H226.782V197.508H232.935V201.199Z" fill="#FF8761"/>
<path d="M335.502 201.199H319.198V197.508H335.502V201.199Z" fill="#1487E3"/>
<path d="M351.808 215.098H335.502V211.408H351.808V215.098Z" fill="#FF8761"/>
<path d="M267.966 326.703H251.661V323.013H267.966V326.703Z" fill="#FF8761"/>
<path d="M314.882 201.199H280.189V197.508H314.882V201.199Z" fill="#1487E3"/>
<path d="M268.166 285.212H247.897V281.519H268.166V285.212Z" fill="#1487E3"/>
<path d="M256.728 312.805H246.593V309.112H256.728V312.805Z" fill="#1487E3"/>
<path d="M275.268 201.199H263.329V197.508H275.268V201.199Z" fill="#78C2FF"/>
<path d="M235.088 215.098H223.153V211.408H235.088V215.098Z" fill="#FF8761"/>
<path d="M237.468 271.106H225.532V267.414H237.468V271.106Z" fill="#FF8761"/>
<path d="M258.777 201.199H237.98V197.508H258.777V201.199Z" fill="#1487E3"/>
<path d="M507.816 344.836H547.798V229.926H507.816V344.836Z" fill="#FDFDFD"/>
<path d="M494.864 344.836H507.816V229.926H494.864V344.836Z" fill="url(#paint12_linear)"/>
<path d="M494.864 344.836H391.679C388.818 344.836 386.5 342.516 386.5 339.655V235.106C386.5 232.245 388.818 229.926 391.679 229.926H494.864V344.836Z" fill="url(#paint13_linear)"/>
<path d="M544.722 344.334C547.798 333.257 543.455 325.208 542.691 317.556C542.19 312.555 544.717 309.828 547.678 309.275V339.655C547.678 341.72 546.47 343.502 544.722 344.334Z" fill="url(#paint14_linear)"/>
<path d="M518.994 261.168H547.678V259.936H518.994V261.168Z" fill="#DFF0FF"/>
<path d="M530.271 297.049H504.304C503.205 297.049 502.315 296.159 502.315 295.063V291.052C502.315 289.955 503.205 289.064 504.304 289.064H530.271C531.371 289.064 532.26 289.955 532.26 291.052V295.063C532.26 296.159 531.371 297.049 530.271 297.049Z" fill="#4AAFFF"/>
<path d="M530.271 311.999H504.304C503.205 311.999 502.315 311.11 502.315 310.012V306.001C502.315 304.904 503.205 304.014 504.304 304.014H530.271C531.371 304.014 532.26 304.904 532.26 306.001V310.012C532.26 311.11 531.371 311.999 530.271 311.999Z" fill="#4AAFFF"/>
<path d="M530.271 326.948H504.304C503.205 326.948 502.315 326.059 502.315 324.961V320.952C502.315 319.853 503.205 318.964 504.304 318.964H530.271C531.371 318.964 532.26 319.853 532.26 320.952V324.961C532.26 326.059 531.371 326.948 530.271 326.948Z" fill="#4AAFFF"/>
<path d="M457.182 317.643C443.746 322.448 429.264 318.111 420.536 307.85C418.455 305.405 416.701 302.623 415.367 299.546C415.071 298.868 414.796 298.173 414.544 297.467C412.004 290.366 412.018 282.973 414.11 276.295C417.128 266.653 424.473 258.492 434.718 254.83C438.1 253.619 441.547 252.991 444.951 252.886C459.016 252.462 472.362 261.039 477.356 275.003C483.56 292.348 474.527 311.439 457.182 317.643ZM487.839 271.254C481.178 252.63 463.38 241.192 444.62 241.756C440.078 241.893 435.482 242.732 430.969 244.344C417.306 249.234 407.507 260.117 403.482 272.975C400.692 281.888 400.674 291.746 404.061 301.217C404.398 302.16 404.763 303.084 405.156 303.99C406.937 308.092 409.277 311.803 412.052 315.064C423.695 328.751 443.011 334.534 460.932 328.128C484.067 319.85 496.114 294.39 487.839 271.254Z" fill="#4AAFFF"/>
<path d="M414.11 276.295L403.482 272.975C407.507 260.117 417.306 249.233 430.969 244.344C435.482 242.732 440.078 241.893 444.62 241.756L444.951 252.886C441.548 252.991 438.1 253.619 434.718 254.83C424.473 258.492 417.128 266.653 414.11 276.295Z" fill="#1A598C"/>
<path d="M415.367 299.546L405.156 303.99C404.763 303.084 404.398 302.16 404.061 301.217C400.674 291.746 400.692 281.888 403.482 272.975L414.11 276.295C412.018 282.973 412.004 290.366 414.544 297.467C414.796 298.173 415.071 298.868 415.367 299.546Z" fill="#2273B5"/>
<path d="M412.052 315.064C409.277 311.803 406.937 308.092 405.157 303.99L415.367 299.546C416.701 302.623 418.455 305.405 420.536 307.85L412.052 315.064Z" fill="#3788CC"/>
<path d="M460.802 312.622C460.802 312.622 458.647 308.85 462.064 298.743C465.368 288.969 476.811 289.854 480.446 296.117C484.083 302.378 482.855 306.27 477.501 313.339C472.148 320.41 463.022 315.854 460.802 312.622Z" fill="#EEA886"/>
<path d="M487.376 486.51C487.376 486.51 487.942 490.659 488.013 491.285C488.083 491.907 494.311 490.917 494.311 490.917L494.816 485.975C494.816 485.975 488.155 485.925 487.376 486.51Z" fill="#EEA886"/>
<path d="M487.946 490.757C487.946 490.757 485.972 493.258 484.065 494.347C482.156 495.439 479.158 495.869 478.029 496.998C477.214 497.811 475.062 501.32 482.989 501.247C490.914 501.179 494.734 501.745 495.585 500.4C496.434 499.054 494.356 490.476 494.356 490.476C494.356 490.476 492.417 491.023 487.946 490.757Z" fill="#414773"/>
<path d="M444.256 486.51C444.256 486.51 444.824 490.659 444.893 491.285C444.964 491.907 451.191 490.917 451.191 490.917L451.696 485.975C451.696 485.975 445.035 485.925 444.256 486.51Z" fill="#EEA886"/>
<path d="M444.829 490.757C444.829 490.757 442.855 493.258 440.946 494.347C439.038 495.439 432.015 496.333 430.887 497.462C430.071 498.277 428.716 501.556 439.869 501.248C447.793 501.031 451.616 501.745 452.466 500.4C453.315 499.054 451.236 490.476 451.236 490.476C451.236 490.476 448.775 490.913 444.829 490.757Z" fill="#414773"/>
<path d="M485.279 383.157C485.279 383.157 488.473 393.079 488.052 401.63C487.631 410.181 489.702 419.538 490.549 428.471C491.495 438.428 495.358 462.003 495.496 467.33C495.638 472.655 494.897 489.667 494.897 489.667L487.163 489.851C487.163 489.851 480.669 448.639 478.986 444.433C477.305 440.228 468.962 410.248 468.682 406.884C468.402 403.519 485.279 383.157 485.279 383.157Z" fill="#2D314F"/>
<path d="M453.216 382.124C453.216 382.124 448.52 408.359 447.958 413.593C447.399 418.827 447.024 438.92 446.744 442.191C446.464 445.461 444.875 484.993 443.38 489.851H452.003C452.003 489.851 460.857 461.115 460.857 447.517C460.857 433.92 466.719 417.957 470.504 408.987C474.289 400.014 482.953 399.802 485.279 383.157C485.279 383.157 456.364 376.845 453.216 382.124Z" fill="#2D314F"/>
<path d="M463.928 315.289C463.928 315.289 464.901 318.121 463.928 320.142C462.955 322.161 476.355 320.95 476.355 320.95C476.355 320.95 475.75 316.774 477.501 313.339C479.251 309.904 463.928 315.289 463.928 315.289Z" fill="#EEA886"/>
<path d="M485.901 385.32C485.901 385.32 481.08 390.271 452.784 384.548L453.216 382.124L485.384 383.337L485.901 385.32Z" fill="#2B3B57"/>
<path d="M461.9 320.797C461.9 320.797 456.95 321.302 455.536 321.572C454.123 321.84 444.604 319.868 442.651 319.667C440.697 319.466 432.371 313.761 432.101 313.086C431.833 312.414 427.037 300.27 426.767 297.644C426.497 295.014 422.095 296.372 422.471 298.182C423.177 301.568 424.084 309.784 424.582 312.166C425.119 314.739 426.558 320.563 427.366 321.28C428.173 321.997 435.671 327.699 443.011 330.122C450.353 332.547 455.877 336.117 455.877 336.117H492.051C492.051 336.117 506.122 316.005 506.424 312.974C506.725 309.944 496.596 289.804 494.576 287.277C492.555 284.752 489.634 288.102 489.634 288.102C489.634 288.102 495.688 305.864 496.495 308.39C497.304 310.915 489.455 322.009 487.298 322.044C485.144 322.077 479.612 321.369 477.153 321.268C474.695 321.166 472.101 320.089 472.101 320.089L461.9 320.797Z" fill="#EEA886"/>
<path d="M446.31 334.231C446.31 334.231 450.74 337.175 451.144 342.224C451.547 347.276 453.164 355.255 453.972 357.982C454.781 360.711 453.265 380.507 453.062 381.921C452.86 383.337 481.055 386.695 485.384 383.337C485.384 383.337 486.597 364.85 487.101 359.599C487.607 354.347 490.03 341.621 490.839 339.903C491.647 338.184 501.444 324.443 501.848 322.631C501.848 322.631 496.778 314.55 493.144 314.449C493.144 314.449 487.368 321.217 485.486 321.519C483.602 321.822 472.061 319.707 472.058 319.689C472.058 319.689 470.799 321.406 464.102 319.384C464.102 319.384 456.127 320.284 454.83 320.449C453.258 320.652 442.338 319.08 442.338 319.08C442.338 319.08 437.957 326.479 438.724 330.213L446.31 334.231Z" fill="#FFC655"/>
<path d="M427.02 299.221C427.02 299.221 426.03 294.539 427.222 293.195C427.901 292.431 429.528 290.404 429.676 290.107C429.826 289.809 431.575 288.804 431.575 288.32C431.575 287.836 429.864 287.241 428.376 288.618C426.887 289.995 425.958 290.293 425.363 290.143C424.766 289.995 423.911 285.046 423.836 283.819C423.762 282.591 423.288 279.354 422.52 279.578C421.753 279.8 421.79 281.214 421.79 281.214C421.79 281.214 420.897 278.757 420.302 279.243C419.706 279.725 419.781 280.917 419.781 280.917C419.781 280.917 418.664 279.539 418.367 280.544C418.069 281.55 418.367 282.441 418.367 282.441C418.367 282.441 417.212 281.809 417.14 283.372C417.064 284.934 417.474 289.511 418.292 291.148C419.11 292.786 422.175 297.067 422.54 298.739C422.905 300.413 427.02 299.221 427.02 299.221Z" fill="#EEA886"/>
<path d="M490.62 291C490.62 291 487.255 285.342 486.109 284.837C484.964 284.332 483.349 284.045 481.935 283.035C480.52 282.026 478.652 281.184 478.753 280.848C478.853 280.511 480.52 280.645 482.305 281.419C484.089 282.194 484.871 281.819 485.04 281.415C485.209 281.012 484.089 278.159 483.55 277.485C483.011 276.812 479.173 272.951 479.813 272.378C480.453 271.806 482.945 273.929 483.349 274.365C483.349 274.365 481.362 270.191 482.137 269.988C482.91 269.786 484.358 271.267 484.358 271.267C484.358 271.267 484.191 267.699 488.029 273.49C488.029 273.49 487.22 271.57 488.399 272.212C489.577 272.85 490.723 276.454 491.093 278.272C491.462 280.089 493.144 285.881 494.576 287.277C496.008 288.675 490.62 291 490.62 291Z" fill="#EEA886"/>
<path d="M477.501 313.339C477.501 313.339 475.728 313.497 471.956 312.195C468.185 310.892 467.904 304.299 467.089 305.079C465.425 306.673 463.853 305.573 463.225 304.63C463.225 304.63 465.065 302.206 464.212 301.037C463.359 299.871 461.971 299.019 461.971 299.019C461.971 299.019 464.622 286.236 476.693 292.059C490.834 298.884 477.501 313.339 477.501 313.339Z" fill="#353A3D"/>
<path d="M463.928 320.142L464.354 318.293C464.354 318.293 472.057 318.137 476.26 318.746L476.704 320.955C476.704 320.955 471.32 323.396 463.928 320.142Z" fill="#D4D8E8"/>
<path d="M465.829 303.462C466.528 302.301 469.115 301.516 469.42 304.809C469.656 307.364 464.795 310.152 464.75 307.773C464.706 305.392 465.363 304.236 465.829 303.462Z" fill="#EEA886"/>
<path d="M426.836 298.159C426.836 298.159 424.057 298.226 422.709 299.444C422.709 299.444 422.621 300.218 422.933 300.826C422.933 300.826 425.342 299.702 427.191 299.492C427.191 299.492 427.159 298.481 426.836 298.159Z" fill="#E55353"/>
<path d="M423.559 298.85C423.304 299.458 423.589 300.16 424.195 300.417C424.803 300.672 425.505 300.388 425.762 299.781C426.018 299.172 425.735 298.471 425.126 298.214C424.518 297.957 423.816 298.243 423.559 298.85Z" fill="#353A3D"/>
<path d="M355.284 200.066C355.284 200.066 359.257 206.801 360.935 207.902C363.213 209.395 361.785 210.904 360.704 210.906C359.622 210.907 354.1 211.302 352.883 209.921C351.665 208.541 351.064 204.401 349.931 203.319C348.799 202.237 347.631 197.934 350.482 196.889C353.004 195.963 355.284 200.066 355.284 200.066Z" fill="#6069A8"/>
<path d="M353.564 197.104C353.564 197.104 358.115 204.991 358.898 206.157C359.682 207.323 357.421 207.32 356.02 206.766C354.62 206.213 351.096 200.556 350.59 199.526C349.986 198.297 350.482 196.889 350.482 196.889L353.564 197.104Z" fill="#202338"/>
<path d="M348.954 201.348L350.004 209.433L350.562 209.458L350.387 203.641L348.954 201.348Z" fill="#6069A8"/>
<path d="M315.884 200.066C315.884 200.066 319.858 206.801 321.535 207.902C323.813 209.395 322.386 210.904 321.305 210.906C320.224 210.907 314.7 211.302 313.484 209.921C312.266 208.541 311.664 204.401 310.532 203.319C309.4 202.237 308.193 197.823 311.082 196.889C313.617 196.068 315.884 200.066 315.884 200.066Z" fill="#6069A8"/>
<path d="M314.403 197.12C314.403 197.12 318.714 204.991 319.5 206.157C320.283 207.323 318.021 207.32 316.621 206.766C315.22 206.213 311.696 200.556 311.19 199.526C310.587 198.297 311.082 196.889 311.082 196.889L314.403 197.12Z" fill="#202338"/>
<path d="M309.554 201.348L310.604 209.433L311.162 209.458L310.989 203.641L309.554 201.348Z" fill="#6069A8"/>
<path d="M298.257 138.77L334.211 155.152C334.211 155.152 338.224 156.458 338.674 160.914C340.078 174.823 350.482 196.889 350.482 196.889C353.82 198.52 353.564 197.104 353.564 197.104C351.461 190.351 348.9 162.519 347.986 151.329C347.793 148.959 347.673 147.335 347.646 146.817C347.629 146.463 347.243 146.003 346.577 145.463C341.643 141.462 321.342 133.179 321.342 133.179C306.101 132.792 298.257 138.77 298.257 138.77Z" fill="#202338"/>
<path d="M291.48 145.805C292.593 155.523 306.466 154.41 306.466 154.41H323.279C323.279 154.41 318.864 164.237 317.157 172.526C315.348 181.324 311.082 196.889 311.082 196.889C311.082 196.889 311.36 197.417 314.403 197.12C314.403 197.12 327.6 170.817 332.653 164.204C333.74 162.781 336.855 155.055 337.391 150.448C337.573 148.898 337.461 147.701 336.882 147.215C336.297 146.726 334.958 145.805 333.171 144.677C327.902 141.356 318.758 136.244 313.661 135.099C306.837 133.565 296.043 130.69 296.043 130.69C296.043 130.69 290.368 136.088 291.48 145.805Z" fill="#202338"/>
<path d="M302.923 70.9497C302.923 70.9497 300.407 66.1716 301.633 61.0839C302.86 55.9961 307.58 50.9265 314.493 53.2555C321.406 55.5832 326.993 60.9523 322.849 67.1613C318.706 73.3703 326.6 76.1742 324.588 79.129C322.577 82.0839 323.339 85.169 324.191 85.8568C325.043 86.5432 327.79 88.9936 327.487 91.8955C327.185 94.7961 314.077 83.44 314.077 83.44C314.077 83.44 306.936 69.0955 302.923 70.9497Z" fill="#464240"/>
<path d="M323.991 132.014C323.991 132.014 322.951 137.072 296.098 130.685C296.098 130.685 305.1 127.695 323.991 132.014Z" fill="#EB4747"/>
<path d="M295.794 132.105C295.376 132.899 294.96 133.694 294.545 134.489C304.36 134.774 314.177 135.061 323.991 135.347C322.44 130.147 322.944 123.107 323.216 117.763C323.548 111.235 327.151 106.697 326.769 100.094C328.71 100.409 329.046 100.468 330.991 100.765C328.016 92.2916 326.998 88.0929 317.759 84.831C314.75 83.7691 312.775 83.5587 309.518 83.8271C298.817 84.7084 295.59 84.8349 290.335 94.5316C298.562 95.8426 297.207 98.7961 299.702 106.981C300.919 110.972 302.19 115.426 301.537 119.635C300.895 123.779 295.794 128.325 295.794 132.105Z" fill="#325BB3"/>
<path d="M312.87 86.8852C308.491 86.0581 309.422 83.6219 309.422 83.6219C309.422 83.6219 309.625 82.2478 309.705 80.5097C309.726 80.0658 309.736 79.5962 309.733 79.12C309.732 78.3987 309.697 77.6607 309.615 76.9665C309.255 74.0271 317.563 75.7807 317.563 75.7807C317.563 75.7807 317.084 81.7291 318.23 83.511C319.375 85.2942 317.251 87.7123 312.87 86.8852Z" fill="#EEA886"/>
<path d="M304.515 83.6065C304.515 83.6065 313.349 93.8064 316.615 96.1703C316.615 96.1703 320.367 92.7807 318.055 83.8284C318.055 83.8284 313.789 81.6916 304.515 83.6065Z" fill="#EEA886"/>
<path d="M304.757 59.0568C304.757 59.0568 300.168 67.8968 304.718 76.2697C309.269 84.6413 318.208 72.6233 318.785 71.2129C319.364 69.8026 322.429 61.8271 316.333 59.4026C310.235 56.9794 306.056 56.6581 304.757 59.0568Z" fill="#EEA886"/>
<path d="M306.282 62.1936C306.282 62.1936 303.123 66.3419 302.749 69.4064C302.749 69.4064 301.492 63.6116 305.047 58.0439C308.6 52.4774 317.639 57.7793 318.851 60.0038C320.06 62.2284 323.608 64.1884 317.648 73.7471C317.648 73.7471 306.931 66.3006 306.282 62.1936Z" fill="#464240"/>
<path d="M313.612 77.151C313.612 77.151 312.816 78.8916 309.705 80.5097C309.726 80.0658 309.736 79.5961 309.733 79.12C309.733 79.12 311.84 78.8658 313.612 77.151Z" fill="#A77860"/>
<path d="M267.248 124.151C267.248 124.151 265.068 125.121 264.031 124.681C262.999 124.241 261.399 124.156 260.896 124.155C260.221 124.154 258.11 123.4 258.145 124.226C258.182 125.05 261.573 125.626 262.268 125.884C262.962 126.141 260.191 127.666 259.935 128.343C259.677 129.021 262.804 133.467 264.568 132.2C266.332 130.933 267.287 128.404 267.646 128.244C268.006 128.083 268.971 127.373 268.971 127.373L267.248 124.151Z" fill="#EEA886"/>
<path d="M260.268 127.95C260.268 127.95 255.154 132.19 255.074 132.763C254.994 133.335 255.264 133.604 255.759 133.227C256.255 132.85 260.831 129.275 260.831 129.275C260.831 129.275 255.706 135.326 255.535 135.775C255.433 136.039 255.924 136.586 256.211 136.409C256.497 136.232 261.946 130.534 261.946 130.534C261.946 130.534 257.172 136.195 257.148 136.618C257.124 136.988 257.699 137.388 258.084 136.994C258.47 136.599 263.221 131.605 263.221 131.605C263.221 131.605 260.028 135.951 260.224 136.333C260.345 136.568 260.749 137.058 261.535 135.91C262.32 134.761 264.48 132.258 264.48 132.258L260.268 127.95Z" fill="#EEA886"/>
<path d="M321.524 154.412H306.466C306.466 154.412 292.593 155.523 291.482 145.806C290.368 136.088 296.043 130.69 296.043 130.69C296.043 130.69 303.372 132.643 309.771 134.187C312.973 133.507 316.834 133.065 321.342 133.179C321.342 133.179 348.465 142.141 347.648 146.859C347.648 146.859 336.302 140.794 321.524 154.412Z" fill="#FF7E55"/>
<path d="M311.723 137.583L340.433 137.16L325.937 144.521L311.723 137.583Z" fill="#5E5853"/>
<path d="M320.643 133.915C320.643 133.915 314.184 136.415 306.266 134.154L305.896 131.197L322.198 132.105L320.643 133.915Z" fill="#325BB3"/>
<path d="M325.937 144.521L311.723 139.014V137.583L327.061 143.116L325.937 144.521Z" fill="#91887F"/>
<path d="M320.541 135.283C320.466 136.343 321.538 137.108 322.518 136.69L324.184 135.979C324.684 135.765 324.976 135.237 324.889 134.698C324.195 130.356 322.706 113.452 324.884 110.55C325.688 109.479 326.189 108.538 326.471 107.717C327.909 111.422 329.697 116.195 330.408 118.761L343.972 136.806L348.52 137.96C342.844 124.285 338.286 117.04 338.286 117.04C337.398 114.657 334.852 107.44 332.598 101.014C331.175 96.9561 329.868 93.2142 329.166 91.2039C328.809 90.1845 328.108 89.3239 327.18 88.7716C325.079 87.5148 321.578 85.5355 318.403 83.9948L318.366 83.9768L318.062 83.8297L318.056 83.8284L318.055 83.8271C324.089 92.96 321.736 118.752 320.545 135.246L320.541 135.283Z" fill="#EDDAD3"/>
<path d="M298.135 84.6064C296.2 84.9045 291.406 89.56 288.861 94.258C285.955 99.6206 282.997 105.725 280.78 107.733C276.704 111.427 265.292 124.481 264.75 124.165C264.541 124.044 267.879 128.063 268.304 128.25C268.515 128.344 287.058 112.276 288.839 109.828C290.529 107.507 295.044 97.7664 296.395 97.9806L296.398 97.9884L296.4 97.9922C296.504 98.2129 298.145 101.774 299.702 106.981L299.78 107.24C300.852 110.871 300.753 114.813 300.172 119.243C299.733 122.586 297.238 128.052 295.733 130.712C295.551 131.032 295.598 131.641 295.794 132.104C295.911 132.381 296.08 132.605 296.288 132.681L301.731 134.698L303.011 135.173C303.932 135.513 304.898 135.335 305.62 134.812C306.212 134.382 306.639 133.72 306.744 132.919C307.954 123.608 309.486 114.094 310.706 110.511C316.062 94.7858 308.613 82.9703 308.613 82.9703C308.613 82.9703 299.831 83.9729 298.135 84.6064Z" fill="#EDDAD3"/>
<path d="M325.937 144.521L334.478 121.204L362.008 121.653L353.869 143.141L325.937 144.521Z" fill="#6E6760"/>
<path d="M343.286 131.519C342.447 133.199 342.7 135.027 343.853 135.604C345.007 136.181 346.622 135.286 347.462 133.608C348.302 131.929 348.049 130.099 346.895 129.523C345.744 128.946 344.127 129.84 343.286 131.519Z" fill="#807066"/>
<path d="M314.265 67.8594C314.265 67.8594 316.028 70.6026 314.4 72.9716C312.769 75.3393 314.811 77.6658 315.163 80.169C315.518 82.6723 308.363 89.3342 316.32 92.6852C324.277 96.0361 326.809 90.4968 324.778 87.4478C322.749 84.3987 321.308 81.9252 321.136 77.5794C320.966 73.2323 319.535 66.4568 314.265 67.8594Z" fill="#464240"/>
<path d="M256.631 34.9342H290.542V64.6916L285.367 59.5149H256.631V34.9342Z" fill="#78C2FF"/>
<defs>
<linearGradient id="paint0_linear" x1="148.351" y1="283.311" x2="536.002" y2="283.311" gradientUnits="userSpaceOnUse">
<stop stop-color="#FD4370"/>
<stop offset="0.9999" stop-color="#FD4370"/>
<stop offset="1" stop-color="#FF5555"/>
</linearGradient>
<linearGradient id="paint1_linear" x1="171.212" y1="266.151" x2="494.864" y2="266.151" gradientUnits="userSpaceOnUse">
<stop stop-color="#141628"/>
<stop offset="0.468241" stop-color="#404B61"/>
<stop offset="1" stop-color="#1487E3"/>
</linearGradient>
<linearGradient id="paint2_linear" x1="598.313" y1="385.653" x2="681.588" y2="385.653" gradientUnits="userSpaceOnUse">
<stop stop-color="#3076A1"/>
<stop offset="1" stop-color="#639C38"/>
</linearGradient>
<linearGradient id="paint3_linear" x1="591.078" y1="373.511" x2="699.805" y2="373.511" gradientUnits="userSpaceOnUse">
<stop stop-color="#3076A1"/>
<stop offset="1" stop-color="#639C38"/>
</linearGradient>
<linearGradient id="paint4_linear" x1="566.098" y1="357.061" x2="636.231" y2="357.061" gradientUnits="userSpaceOnUse">
<stop stop-color="#3076A1"/>
<stop offset="1" stop-color="#639C38"/>
</linearGradient>
<linearGradient id="paint5_linear" x1="585.59" y1="372.227" x2="606.854" y2="372.227" gradientUnits="userSpaceOnUse">
<stop stop-color="#3076A1"/>
<stop offset="1" stop-color="#639C38"/>
</linearGradient>
<linearGradient id="paint6_linear" x1="537.465" y1="376.441" x2="606.113" y2="376.441" gradientUnits="userSpaceOnUse">
<stop stop-color="#3076A1"/>
<stop offset="1" stop-color="#639C38"/>
</linearGradient>
<linearGradient id="paint7_linear" x1="583.427" y1="531.975" x2="641.183" y2="307.369" gradientUnits="userSpaceOnUse">
<stop stop-color="#3076A1"/>
<stop offset="1" stop-color="#639C38"/>
</linearGradient>
<linearGradient id="paint8_linear" x1="604.422" y1="415.547" x2="629.8" y2="415.547" gradientUnits="userSpaceOnUse">
<stop stop-color="#3076A1"/>
<stop offset="1" stop-color="#639C38"/>
</linearGradient>
<linearGradient id="paint9_linear" x1="582.631" y1="461.302" x2="629.549" y2="461.302" gradientUnits="userSpaceOnUse">
<stop stop-color="#FF9340"/>
<stop offset="1" stop-color="#FFCE45"/>
</linearGradient>
<linearGradient id="paint10_linear" x1="582.631" y1="461.302" x2="629.549" y2="461.302" gradientUnits="userSpaceOnUse">
<stop stop-color="#C97332"/>
<stop offset="1" stop-color="#FFCE45"/>
</linearGradient>
<linearGradient id="paint11_linear" x1="333.4" y1="361.433" x2="333.4" y2="576.37" gradientUnits="userSpaceOnUse">
<stop stop-color="#FD4370"/>
<stop offset="1" stop-color="#FD4370"/>
</linearGradient>
<linearGradient id="paint12_linear" x1="148.352" y1="283.311" x2="536.002" y2="283.311" gradientUnits="userSpaceOnUse">
<stop stop-color="#D1F5F9"/>
<stop offset="1" stop-color="#D6DEFF"/>
</linearGradient>
<linearGradient id="paint13_linear" x1="171.212" y1="266.151" x2="494.864" y2="266.151" gradientUnits="userSpaceOnUse">
<stop stop-color="#D1D4D9"/>
<stop offset="0.468241" stop-color="#D1D4D9"/>
<stop offset="1" stop-color="#CDD1D8"/>
</linearGradient>
<linearGradient id="paint14_linear" x1="537.465" y1="376.441" x2="606.113" y2="376.441" gradientUnits="userSpaceOnUse">
<stop stop-color="#CDDEE9"/>
<stop offset="1" stop-color="#DAE7CF"/>
</linearGradient>
</defs>
</svg>
