<svg width="43" height="38" viewBox="0 0 43 38" fill="none" xmlns="http://www.w3.org/2000/svg">
<g clip-path="url(#clip0)">
<path d="M43 20.0363C43 29.5758 35.2372 37.3091 25.6613 37.3091C16.0854 37.3091 8.32257 29.5758 8.32257 20.0363C8.32257 10.4969 16.0854 2.76361 25.6613 2.76361C35.2372 2.76361 43 10.4969 43 20.0363Z" fill="#FD4370"/>
<path d="M14.5645 35.9273C20.3101 35.9273 24.9678 32.37 24.9678 27.9818C24.9678 23.5937 20.3101 20.0364 14.5645 20.0364C8.819 20.0364 4.16132 23.5937 4.16132 27.9818C4.16132 32.37 8.819 35.9273 14.5645 35.9273Z" fill="#141628"/>
<path d="M13.1774 20.7273C18.9229 20.7273 23.5806 17.17 23.5806 12.7818C23.5806 8.39367 18.9229 4.83636 13.1774 4.83636C7.43185 4.83636 2.77417 8.39367 2.77417 12.7818C2.77417 17.17 7.43185 20.7273 13.1774 20.7273Z" fill="#141628"/>
<path d="M4.00873 4.10675H15.8462C19.0846 4.10675 21.5056 4.78015 23.109 6.12697C24.744 7.44246 25.5614 9.52534 25.5614 12.3756C25.5614 14.4115 25.1999 16.0088 24.4767 17.1677C23.7851 18.2953 22.7475 19.1879 21.3641 19.8457C24.8226 21.0359 26.5518 23.5885 26.5518 27.5037C26.5518 30.7611 25.6872 33.0945 23.958 34.504C22.2287 35.9134 19.7292 36.6182 16.4593 36.6182H4.00873V4.10675ZM16.082 21.6779H7.64015V33.4234H16.3178C18.4558 33.4234 20.075 32.9849 21.1754 32.1079C22.3073 31.1996 22.8732 29.6179 22.8732 27.3628C22.8732 26.1725 22.6374 25.1703 22.1658 24.3559C21.7256 23.5415 21.1283 22.9621 20.3737 22.6176C18.9903 21.9911 17.5598 21.6779 16.082 21.6779ZM15.7047 7.30151H7.64015V18.5302H16.0349C18.047 18.5302 19.509 18.0604 20.4209 17.1207C21.3641 16.1498 21.8357 14.709 21.8357 12.7984C21.8357 10.8564 21.3327 9.46268 20.3265 8.61701C19.3519 7.74003 17.8112 7.30151 15.7047 7.30151Z" fill="white"/>
</g>
<defs>
<clipPath id="clip0">
<rect width="43" height="38" fill="white"/>
</clipPath>
</defs>
</svg>
