<svg width="28" height="28" viewBox="0 0 28 28" fill="none" xmlns="http://www.w3.org/2000/svg">
<g clip-path="url(#clip0)">
<path d="M28 5.31651C26.9698 5.77385 25.8627 6.08185 24.7007 6.22068C25.8872 5.51018 26.7983 4.38435 27.2265 3.04268C26.117 3.70068 24.8873 4.17901 23.5783 4.43685C22.5318 3.32035 21.0373 2.62268 19.3853 2.62268C15.6765 2.62268 12.9512 6.08301 13.7888 9.67518C9.016 9.43601 4.78333 7.14935 1.9495 3.67385C0.4445 6.25568 1.169 9.63318 3.72633 11.3435C2.786 11.3132 1.89933 11.0553 1.12583 10.6248C1.06283 13.286 2.97033 15.7757 5.733 16.3298C4.9245 16.5492 4.039 16.6005 3.13833 16.4278C3.86867 18.7098 5.98967 20.37 8.505 20.4167C6.09 22.3102 3.04733 23.156 0 22.7967C2.54217 24.4265 5.56267 25.3773 8.806 25.3773C19.4717 25.3773 25.4975 16.3695 25.1335 8.29035C26.2558 7.47951 27.23 6.46801 28 5.31651V5.31651Z" fill="#FD4370"/>
</g>
<defs>
<clipPath id="clip0">
<rect width="28" height="28" fill="white"/>
</clipPath>
</defs>
</svg>
